{"glyphs":{"0":{"ha":640,"x_min":0,"x_max":0,"o":"m 313 839 b 599 431 503 757 599 621 b 529 172 599 332 575 246 b 336 -14 489 107 424 46 b 117 125 243 4 171 51 b 40 376 65 196 40 279 b 313 839 40 567 131 721 m 222 725 b 133 483 163 654 133 574 b 208 238 133 389 158 307 b 419 94 260 164 331 117 b 507 354 479 165 508 251 b 432 593 506 447 481 526 b 222 725 381 664 311 707 "},"1":{"ha":422,"x_min":0,"x_max":0,"o":"m 164 840 b 268 700 233 793 268 746 l 268 142 l 321 96 l 371 144 l 393 125 l 243 -11 l 101 96 b 138 154 125 118 138 138 l 138 656 b 83 742 138 685 119 713 l 32 696 l 14 718 "},"2":{"ha":640,"x_min":0,"x_max":0,"o":"m 556 657 b 557 615 556 647 557 625 b 479 397 557 519 531 447 b 382 324 453 371 419 347 b 171 189 342 300 271 256 b 89 96 142 168 115 136 b 360 154 176 133 267 153 b 567 106 440 156 510 139 l 469 -12 b 243 35 393 19 317 35 b 3 -14 161 35 81 18 b 139 221 17 68 63 147 b 324 392 174 251 236 308 b 417 589 383 451 415 517 b 342 742 418 642 393 693 l 111 558 l 24 644 l 263 839 "},"3":{"ha":640,"x_min":0,"x_max":0,"o":"m 251 839 l 528 696 b 532 654 528 689 532 664 b 363 439 528 551 472 479 b 560 228 497 403 563 332 b 439 46 558 151 518 92 b 218 -14 375 10 301 -10 l 0 169 l 93 261 l 356 38 b 422 211 400 86 422 144 b 361 367 424 278 403 329 b 203 422 322 401 269 421 b 160 421 193 422 169 421 l 160 453 b 392 671 299 454 392 533 b 379 722 392 689 388 707 b 339 750 369 740 357 750 b 133 608 329 751 261 704 l 57 693 "},"4":{"ha":640,"x_min":0,"x_max":0,"o":"m 360 842 b 460 704 426 807 460 761 l 460 367 l 576 367 l 606 264 l 460 264 l 460 132 l 513 90 l 551 124 l 568 104 l 439 -14 l 290 81 b 338 149 306 96 322 119 l 338 264 l 61 264 l 24 378 l 360 842 m 61 376 l 68 367 l 336 367 l 336 661 b 307 707 336 679 326 694 "},"5":{"ha":640,"x_min":0,"x_max":0,"o":"m 515 822 l 478 701 l 167 701 l 126 431 l 363 588 b 561 313 489 547 560 444 b 476 93 563 225 533 153 b 265 -14 424 39 353 3 l 28 132 l 108 224 l 382 57 b 469 242 442 115 471 176 b 267 482 468 358 400 439 l 79 354 l 150 822 "},"6":{"ha":640,"x_min":0,"x_max":0,"o":"m 558 728 l 474 625 l 274 728 b 194 596 240 693 214 649 b 167 442 176 544 167 493 l 167 376 l 433 560 b 596 339 543 515 597 442 b 333 -14 594 213 507 96 b 49 347 161 32 49 169 b 342 839 50 542 149 706 m 338 443 b 172 346 322 444 267 411 b 413 96 200 208 281 125 b 496 253 469 131 497 183 b 451 379 494 299 481 342 b 338 443 421 421 383 442 "},"7":{"ha":542,"x_min":0,"x_max":0,"o":"m 18 614 b 122 822 56 679 90 749 l 565 822 l 565 790 b 318 361 444 647 361 504 b 268 50 289 265 272 163 l 107 -8 b 219 375 114 113 151 240 b 454 701 283 499 361 607 l 164 701 b 39 606 124 683 82 651 l 18 614 "},"8":{"ha":640,"x_min":0,"x_max":0,"o":"m 261 839 b 444 797 335 835 396 821 b 547 654 513 764 546 717 b 422 492 549 590 507 536 b 575 300 525 458 576 394 b 326 -14 575 182 492 78 l 275 -14 b 117 40 215 -14 163 4 b 40 189 69 81 44 129 b 176 396 42 265 88 335 b 63 540 100 418 61 467 b 261 839 63 631 129 731 m 183 724 b 140 614 154 682 140 646 b 239 522 142 569 174 539 l 396 499 b 467 597 442 531 465 564 b 183 724 468 671 374 713 m 207 392 b 128 254 153 346 126 300 b 206 142 129 206 154 168 b 347 108 247 119 294 108 b 463 132 393 108 431 117 b 522 226 504 153 524 185 b 207 392 519 308 414 364 "},"9":{"ha":640,"x_min":0,"x_max":0,"o":"m 81 93 l 165 199 l 365 93 b 471 379 436 172 471 267 l 471 444 l 206 261 b 42 488 96 307 40 383 b 304 839 43 608 131 725 b 511 707 392 815 460 771 b 590 475 564 642 590 564 b 297 -14 589 282 490 118 m 301 378 b 465 478 315 378 369 411 b 225 724 438 615 357 697 b 143 571 168 689 142 638 b 188 443 144 525 158 482 b 301 378 218 401 256 379 "},"\u0000":{"ha":694,"x_min":0,"x_max":0,"o":"m 88 1276 l 608 1276 l 608 0 l 88 0 m 521 88 l 521 1190 l 174 1190 l 174 88 "},"˘":{"ha":692,"x_min":0,"x_max":0,"o":"m 178 951 b 240 872 190 913 211 886 b 342 857 263 863 296 857 b 443 872 388 857 421 863 b 506 951 472 886 493 913 l 536 951 b 342 771 525 840 451 771 b 147 951 232 771 158 840 l 178 951 "},"˙":{"ha":692,"x_min":0,"x_max":0,"o":"m 347 774 b 275 844 308 774 275 806 b 347 918 275 885 308 918 b 419 844 386 918 419 885 b 347 774 419 806 386 774 "},"ˇ":{"ha":692,"x_min":0,"x_max":0,"o":"m 189 976 l 347 832 l 503 976 l 542 976 l 386 743 l 306 743 l 150 976 "},"ı":{"ha":288,"x_min":0,"x_max":0,"o":"m 200 144 b 233 90 200 121 211 103 l 256 111 l 276 89 l 151 -15 b 68 138 96 14 68 64 l 68 515 l 29 561 l 132 653 l 236 554 l 200 515 "},"⁄":{"ha":231,"x_min":0,"x_max":0,"o":"m -167 -15 l -228 -15 l 397 974 l 458 974 "},"ﬁ":{"ha":575,"x_min":0,"x_max":0,"o":"m 547 857 l 446 706 l 435 706 l 465 857 m 357 133 l 357 515 l 319 558 l 319 554 l 232 554 l 232 154 l 324 92 l 357 124 m 419 653 l 524 556 l 489 514 l 489 139 b 522 92 489 121 500 104 l 544 111 l 565 90 l 443 -15 b 361 89 397 3 371 38 l 253 -15 b 63 93 207 29 144 65 b 101 199 89 114 101 149 l 101 554 l 32 554 l 43 628 l 101 628 l 101 772 b 244 872 142 792 190 825 l 372 840 l 344 740 l 232 768 l 232 628 l 417 649 "},"ﬂ":{"ha":638,"x_min":0,"x_max":0,"o":"m 232 628 l 332 628 l 319 554 l 232 554 l 232 154 l 324 92 l 325 93 l 319 94 b 358 201 346 119 358 156 l 358 732 l 232 768 m 418 806 b 550 875 458 851 503 874 l 550 869 b 489 735 510 838 489 792 l 489 157 l 579 94 l 611 124 l 632 106 l 510 -12 b 356 83 467 29 415 61 l 253 -15 b 63 93 207 29 144 65 b 101 199 89 114 101 149 l 101 554 l 32 554 l 43 628 l 101 628 l 101 772 b 244 872 142 792 190 825 l 372 840 l 372 846 b 400 806 378 836 388 822 "},"Ł":{"ha":803,"x_min":0,"x_max":0,"o":"m 317 224 b 231 78 300 185 271 136 b 397 269 313 138 368 201 m 46 164 l 221 264 b 115 317 203 290 168 307 b 182 347 135 338 157 347 b 232 338 190 347 207 344 l 233 363 b 126 454 232 418 183 454 b 79 446 111 454 96 451 b 181 511 96 489 129 511 b 225 501 201 511 217 508 b 219 579 225 519 219 563 b 332 811 218 657 256 735 b 213 772 288 785 247 771 b 149 785 197 772 176 776 b 88 799 122 793 101 797 b 3 739 53 800 25 779 l -7 749 b 151 894 13 846 65 894 b 240 878 172 894 201 889 b 329 861 279 867 308 861 b 440 890 358 860 396 869 l 449 881 b 335 665 369 815 331 744 b 349 407 339 618 343 532 b 346 336 350 383 349 360 l 422 381 b 422 429 424 396 424 413 l 411 660 b 468 840 407 742 426 803 b 653 893 508 875 569 893 l 653 872 b 529 746 567 871 525 828 b 540 526 532 706 536 632 b 538 447 542 499 540 472 l 644 508 l 686 436 l 508 333 b 492 300 504 322 499 311 b 332 131 463 246 410 190 b 421 157 358 139 389 147 b 529 172 461 168 497 174 b 675 133 592 171 640 157 b 742 94 710 110 732 97 b 783 125 753 96 767 106 l 806 107 l 653 -37 b 400 57 576 25 492 57 b 94 -22 308 56 207 29 l 85 -6 b 226 171 163 54 210 113 l 88 90 "},"ł":{"ha":418,"x_min":0,"x_max":0,"o":"m 3 315 l 138 393 l 138 753 b 89 842 138 785 121 814 l 93 847 b 179 803 128 840 157 826 l 197 803 b 329 872 239 849 283 871 l 331 868 b 268 732 289 835 268 789 l 268 468 l 363 522 l 404 450 l 268 372 l 268 154 l 358 92 l 392 121 l 411 103 l 289 -15 b 100 92 238 33 175 69 b 138 199 125 117 138 153 l 138 297 l 44 243 "},"Ž":{"ha":749,"x_min":0,"x_max":0,"o":"m 36 740 b 168 894 92 801 136 853 b 413 832 261 854 343 833 b 681 883 494 831 583 849 l 689 874 b 532 614 638 808 585 722 l 494 538 l 650 538 l 631 492 l 469 492 b 429 428 463 476 449 454 l 600 428 l 578 382 l 397 382 b 160 132 349 314 269 231 l 81 61 b 339 153 174 107 260 138 b 435 163 368 160 400 163 b 636 114 506 163 574 146 l 683 164 l 707 144 l 569 -21 b 288 54 463 29 369 54 b -14 -11 200 54 100 32 l -24 0 b 117 200 28 58 74 125 b 224 382 154 263 189 324 l 67 382 l 86 428 l 246 428 b 288 492 256 443 269 464 l 118 492 l 136 538 l 319 538 b 610 828 396 636 493 732 b 283 729 488 761 379 728 b 101 763 229 731 169 742 l 57 721 l 36 740 m 579 1203 b 431 989 531 1149 482 1076 l 363 989 b 214 1203 319 1068 269 1139 l 235 1222 b 397 1083 301 1185 356 1139 b 557 1222 443 1144 496 1190 "},"ž":{"ha":406,"x_min":0,"x_max":0,"o":"m 185 653 b 257 586 200 638 225 615 b 338 539 290 557 317 540 l 338 529 l 175 364 b 299 329 226 363 268 351 b 351 215 335 303 353 265 b 215 26 350 136 304 74 b 132 -21 168 1 140 -14 b 82 -94 100 -44 83 -68 b 129 -151 82 -131 97 -150 b 149 -147 133 -150 139 -149 b 169 -144 157 -146 164 -144 b 190 -162 182 -143 189 -150 b 149 -192 189 -181 175 -190 b 56 -96 99 -190 57 -146 b 104 0 61 -56 78 -24 b 176 61 119 14 144 35 b 225 172 203 90 219 126 b 125 267 224 235 190 267 b 24 250 93 268 58 263 l 217 450 l 108 557 l 36 507 l 18 531 m 376 935 b 228 724 328 881 279 810 l 161 724 b 13 935 121 797 71 867 l 33 956 b 194 817 99 918 153 872 b 356 956 240 878 294 924 "}," ":{"ha":429,"x_min":0,"x_max":0,"o":""},"!":{"ha":319,"x_min":0,"x_max":0,"o":"m 154 893 l 258 774 b 169 254 204 606 175 433 l 139 254 b 49 772 138 426 107 599 m 156 201 b 258 88 182 168 217 131 l 143 -15 b 40 92 106 14 72 49 l 156 201 "},"\"":{"ha":464,"x_min":0,"x_max":0,"o":"m 119 983 b 178 917 160 983 179 961 b 154 736 176 890 169 831 l 129 579 l 107 579 b 58 917 90 668 74 781 b 74 964 57 933 61 949 b 119 983 85 976 100 983 m 283 917 b 344 983 283 956 307 983 b 403 917 385 983 404 961 b 379 736 401 890 394 831 l 354 579 l 332 579 b 283 917 317 654 301 767 "},"#":{"ha":1063,"x_min":0,"x_max":0,"o":"m 404 672 l 514 982 l 617 982 l 507 672 l 696 672 l 806 982 l 908 982 l 799 672 l 1003 672 l 969 579 l 765 579 l 700 394 l 918 394 l 883 300 l 667 300 l 558 -3 l 456 -3 l 565 300 l 375 300 l 267 -3 l 163 -3 l 272 300 l 60 300 l 93 394 l 304 394 l 371 579 l 144 579 l 178 672 m 406 393 l 599 393 l 665 579 l 472 579 "},"$":{"ha":640,"x_min":0,"x_max":0,"o":"m 349 925 l 349 833 l 536 792 l 492 689 l 349 721 l 349 471 b 500 558 389 489 440 518 b 601 335 569 504 603 429 b 524 129 600 261 575 193 b 349 -6 478 69 419 25 l 349 -143 l 283 -143 l 283 4 l 29 65 l 72 171 l 283 118 l 283 404 b 151 319 229 374 185 346 b 32 561 79 375 31 471 b 103 751 33 636 57 700 b 283 839 149 803 210 832 l 283 925 m 158 760 b 125 651 135 731 124 694 b 156 517 126 604 136 560 b 256 435 181 463 214 435 b 283 439 263 435 278 439 l 283 733 m 349 101 l 426 85 b 493 286 472 135 494 201 b 472 386 492 324 485 357 b 394 443 454 425 429 444 b 349 433 378 443 363 440 "},"%":{"ha":983,"x_min":0,"x_max":0,"o":"m 40 574 b 231 844 42 675 106 765 b 429 607 363 783 429 704 b 244 321 429 497 368 401 b 97 413 182 339 133 369 b 40 574 58 458 39 511 m 356 563 b 174 757 351 664 278 744 b 115 631 135 719 115 676 b 167 485 115 575 132 526 b 301 407 201 443 247 417 b 356 563 339 453 357 504 m 772 844 l 279 -14 l 206 -14 l 700 844 m 815 68 b 869 218 853 115 871 165 b 688 411 868 318 789 399 b 629 285 649 374 629 331 b 815 68 631 174 706 89 m 758 -14 b 611 71 696 3 647 31 b 554 228 572 114 553 167 b 744 499 556 329 619 419 b 943 261 876 438 943 358 b 758 -14 943 156 882 64 "},"&":{"ha":971,"x_min":0,"x_max":0,"o":"m 186 688 b 208 733 186 703 193 718 b 349 817 218 747 265 775 b 503 894 400 843 451 868 b 607 739 572 853 607 801 b 554 607 607 693 589 649 b 444 511 532 581 496 549 l 571 286 l 733 421 b 843 371 771 388 808 371 b 875 374 850 371 868 374 l 882 369 b 761 286 846 313 806 285 b 669 324 728 286 697 299 l 588 261 b 765 113 642 160 700 111 b 868 160 806 114 839 129 l 878 153 b 690 0 857 58 786 0 b 476 174 606 0 535 58 l 232 -22 l 57 247 l 315 451 b 186 688 228 594 185 674 m 408 799 b 335 724 369 799 336 763 b 372 636 338 706 350 676 l 428 538 b 513 675 485 575 514 621 b 485 758 513 707 503 735 b 408 799 464 785 439 797 m 194 318 l 333 99 l 460 203 l 332 425 "},"'":{"ha":239,"x_min":0,"x_max":0,"o":"m 58 915 b 118 983 57 961 76 983 b 179 915 161 983 182 961 b 157 747 178 872 169 817 b 132 579 143 668 135 611 l 108 579 b 82 747 106 611 97 667 b 58 915 69 818 61 875 "},"(":{"ha":458,"x_min":0,"x_max":0,"o":"m 425 1054 b 283 783 365 974 318 883 b 229 483 247 679 229 579 b 394 -7 231 289 286 125 l 426 28 l 447 7 l 317 -175 b 121 374 185 -28 119 156 b 199 749 122 500 147 625 b 407 1071 250 872 319 981 "},")":{"ha":458,"x_min":0,"x_max":0,"o":"m 33 -158 b 176 110 93 -78 142 11 b 229 410 213 213 231 313 b 64 903 228 603 174 767 l 32 867 l 11 886 l 142 1071 b 338 521 274 924 339 740 b 260 147 336 394 311 269 b 51 -175 208 25 139 -82 "},"*":{"ha":596,"x_min":0,"x_max":0,"o":"m 418 789 b 297 718 372 776 332 753 b 338 715 310 717 324 715 b 435 733 374 715 406 721 l 492 647 l 400 607 b 299 692 375 646 342 674 b 350 567 314 633 332 592 l 281 492 l 217 576 b 279 697 243 601 264 642 b 171 608 233 679 197 650 l 78 644 l 131 733 b 199 718 157 725 179 719 b 260 722 218 717 239 718 b 144 790 229 757 190 781 l 153 896 l 251 871 b 281 742 250 818 260 775 b 310 868 301 771 311 814 l 410 892 l 418 789 "},"+":{"ha":1153,"x_min":0,"x_max":0,"o":"m 529 457 l 529 821 l 624 821 l 624 457 l 981 457 l 981 364 l 624 364 l 624 0 l 529 0 l 529 364 l 172 364 l 172 457 "},",":{"ha":319,"x_min":0,"x_max":0,"o":"m 150 201 b 251 103 176 169 211 136 b 69 -115 222 17 163 -56 l 42 -86 b 106 3 85 -49 106 -18 b 43 97 107 29 86 60 "},"-":{"ha":429,"x_min":0,"x_max":0,"o":"m 76 267 l 63 229 l 38 229 l 92 379 l 347 379 l 365 426 l 389 426 l 335 267 "},".":{"ha":319,"x_min":0,"x_max":0,"o":"m 160 201 b 263 88 190 161 225 124 l 149 -15 b 44 92 110 14 75 50 l 160 201 "},"/":{"ha":428,"x_min":0,"x_max":0,"o":"m 393 893 l 40 -128 l -29 -128 l 318 893 "},":":{"ha":353,"x_min":0,"x_max":0,"o":"m 160 614 b 263 500 190 574 225 536 l 149 396 b 44 507 108 431 74 467 l 160 614 m 160 201 b 263 88 190 161 225 124 l 149 -15 b 44 92 110 14 75 50 l 160 201 "},";":{"ha":353,"x_min":0,"x_max":0,"o":"m 167 201 b 268 103 201 161 236 128 b 85 -115 249 24 188 -50 l 58 -86 b 121 4 100 -47 121 -17 b 60 99 119 26 100 58 l 167 201 m 176 615 b 278 503 208 578 242 540 l 164 397 b 61 510 121 433 86 471 l 176 615 "},"<":{"ha":1153,"x_min":0,"x_max":0,"o":"m 972 781 l 972 675 l 318 408 l 972 144 l 972 39 l 179 368 l 179 454 "},"=":{"ha":1153,"x_min":0,"x_max":0,"o":"m 981 229 l 172 229 l 172 321 l 981 321 m 981 589 l 981 496 l 172 496 l 172 589 "},">":{"ha":1153,"x_min":0,"x_max":0,"o":"m 974 368 l 179 39 l 179 143 l 835 408 l 179 676 l 179 781 l 974 454 "},"?":{"ha":481,"x_min":0,"x_max":0,"o":"m 146 771 b 18 729 125 771 83 757 l 96 889 b 163 894 124 893 146 894 b 313 843 222 893 272 876 b 378 704 356 808 376 761 b 351 606 378 669 369 636 b 232 408 322 564 282 499 b 199 250 214 367 203 314 l 165 250 l 163 300 b 201 507 160 351 172 419 l 229 593 b 243 663 238 619 242 643 b 219 739 243 694 235 719 b 146 771 201 760 178 769 m 182 201 b 283 88 217 156 250 118 l 169 -15 b 67 93 126 18 92 54 "},"@":{"ha":1364,"x_min":0,"x_max":0,"o":"m 96 356 b 296 806 97 538 164 688 b 765 978 424 918 581 976 b 1121 857 908 979 1026 939 b 1268 519 1219 772 1268 660 b 1186 232 1268 415 1240 319 b 942 81 1124 132 1042 82 b 832 129 893 79 856 96 b 801 226 811 157 801 189 b 593 82 749 128 679 81 b 449 153 532 83 483 107 b 403 311 417 196 401 249 b 501 556 404 399 438 481 b 733 676 569 635 646 675 b 883 547 815 678 865 635 l 919 665 l 1024 665 b 993 557 1017 636 1007 600 l 958 449 b 896 186 917 303 896 215 b 954 114 897 138 917 114 b 1128 214 1006 113 1063 146 b 1233 525 1196 285 1232 389 b 1094 836 1235 656 1189 760 b 764 943 1007 908 896 944 b 344 768 593 942 454 883 b 181 343 236 656 182 514 b 306 6 179 200 221 88 b 719 -153 418 -100 556 -153 b 1143 -12 876 -153 1018 -106 l 1167 -40 b 708 -189 1029 -142 876 -192 b 279 -46 535 -187 392 -139 b 96 356 156 53 94 188 m 747 644 b 660 608 713 646 683 633 b 557 439 621 568 586 513 b 513 244 528 367 514 301 b 535 158 513 213 519 183 b 608 115 553 129 576 115 b 786 268 679 124 738 175 b 850 507 828 347 849 428 b 826 599 850 542 842 572 b 747 644 807 628 781 643 "},"A":{"ha":832,"x_min":0,"x_max":0,"o":"m 404 894 b 658 800 483 896 568 864 b 815 899 704 856 756 889 l 818 896 b 736 800 775 856 749 824 b 714 678 721 769 713 729 l 724 199 b 760 97 724 158 736 124 l 807 132 l 826 106 l 668 -24 b 631 4 660 -17 647 -8 b 571 128 594 40 575 82 l 368 -24 b 121 99 217 61 135 101 b 82 63 94 97 82 86 b 96 3 82 50 96 18 b 63 -21 97 -11 86 -19 b 28 15 39 -19 28 -8 b 100 168 25 39 49 89 b 201 311 110 183 144 231 b 51 575 101 399 51 486 b 160 806 51 668 88 744 b 404 894 228 863 308 893 m 497 747 b 353 782 451 771 403 782 b 176 715 285 781 225 758 b 97 546 125 669 99 614 b 217 339 96 467 136 397 l 399 603 b 340 635 386 624 367 635 b 233 567 293 635 257 613 b 388 713 235 657 297 711 b 464 697 414 713 439 707 l 497 747 m 293 381 l 567 381 l 561 682 l 536 718 l 528 718 m 178 211 l 458 86 l 571 175 l 569 285 l 231 285 "},"B":{"ha":989,"x_min":0,"x_max":0,"o":"m 22 751 b 81 865 29 796 49 833 b 196 915 114 899 153 915 b 294 896 219 915 251 908 b 393 876 338 883 371 878 b 458 888 408 876 431 881 l 531 906 l 532 901 b 397 793 469 869 425 833 b 350 626 365 747 350 692 l 350 342 b 244 86 350 256 315 171 b 369 196 294 111 336 147 b 421 351 404 246 421 297 l 421 618 b 489 807 421 700 443 764 b 615 881 518 833 561 858 b 760 915 671 903 719 914 b 854 868 796 915 828 900 b 894 765 879 838 893 803 b 839 636 896 728 878 685 b 739 529 824 617 790 581 b 921 392 860 524 921 478 l 921 126 b 571 -21 815 108 699 60 b 307 36 464 17 376 36 b 190 21 264 36 225 31 b 113 -51 139 7 113 -17 b 128 -124 113 -68 128 -107 b 96 -156 128 -144 117 -154 b 56 -108 69 -154 56 -137 b 139 44 56 -71 83 -21 b 224 193 194 110 222 158 b 188 231 225 218 213 231 b 111 181 164 231 138 214 l 106 211 b 221 325 106 268 144 307 l 224 350 b 128 439 224 406 183 439 b 29 413 93 440 61 431 b 90 506 39 453 58 483 b 197 538 119 526 156 538 b 333 793 197 644 243 731 b 251 778 300 782 272 776 b 182 794 236 778 213 783 b 113 811 153 806 129 811 b 22 751 83 813 53 792 m 361 143 b 485 157 411 153 453 157 b 600 143 518 158 557 153 l 600 636 l 628 636 l 628 490 b 757 696 706 531 756 611 b 650 839 757 753 721 801 b 547 710 582 821 547 778 l 547 410 b 499 246 547 342 531 288 b 361 143 474 214 428 179 m 697 106 l 768 138 l 768 228 b 700 240 744 236 722 240 b 628 231 674 240 650 238 l 628 132 m 628 256 b 692 265 651 263 674 265 b 768 257 710 265 736 263 l 768 356 b 701 347 739 350 717 347 b 628 357 681 347 657 350 m 628 383 b 701 372 660 376 683 372 b 768 385 726 372 749 376 l 768 439 b 743 476 768 451 760 464 b 701 499 729 488 715 494 b 628 450 676 486 651 469 "},"C":{"ha":817,"x_min":0,"x_max":0,"o":"m 146 489 b 224 243 146 388 172 306 b 240 296 235 261 240 279 l 240 665 l 508 893 b 782 814 592 842 683 815 l 660 681 b 469 751 597 707 535 731 l 469 106 b 528 101 482 106 515 101 b 801 228 624 100 715 143 l 813 221 b 438 -22 733 60 608 -21 b 143 92 318 -24 219 15 b 28 388 67 169 29 268 b 103 642 28 479 53 564 b 307 807 154 724 222 779 l 311 803 b 146 489 201 717 146 613 m 381 724 l 381 456 b 342 321 381 404 368 360 b 243 219 324 294 292 261 b 439 113 297 163 363 126 l 439 775 "},"D":{"ha":1044,"x_min":0,"x_max":0,"o":"m 38 936 b 175 860 57 885 103 858 b 368 871 218 860 283 864 b 561 883 454 878 518 882 b 711 871 624 885 674 881 b 840 801 764 858 807 836 b 975 318 931 707 975 546 l 975 203 l 972 131 b 751 -15 899 101 825 53 b 411 44 633 25 521 46 b 50 -68 293 43 172 6 l 38 -51 b 210 58 81 -22 138 15 b 354 165 275 100 324 136 b 438 353 410 219 438 282 l 438 597 b 467 732 438 651 447 697 b 353 588 390 708 353 661 l 353 376 b 260 157 353 292 322 219 b 47 -8 211 108 140 53 l 38 0 b 176 221 129 76 175 150 b 86 326 176 278 143 326 b 1 282 53 328 25 313 b 46 375 3 319 17 350 b 143 411 74 399 106 410 b 200 407 156 411 189 407 b 260 596 201 474 221 536 b 406 729 297 653 346 697 b 314 726 390 728 360 728 l 215 724 b 78 776 158 722 113 739 b 28 901 43 814 26 856 l 29 936 l 38 936 m 564 519 b 683 465 597 483 638 465 b 806 521 732 465 774 483 b 750 676 804 586 786 639 b 596 736 713 717 661 736 l 564 736 m 564 299 b 696 343 607 328 651 342 b 821 304 742 343 783 331 b 822 340 821 311 822 331 b 811 483 821 363 818 410 b 689 436 776 451 735 436 b 564 479 636 436 594 450 m 504 736 b 468 613 481 699 468 658 l 468 350 b 414 183 468 285 450 229 b 468 189 444 188 463 189 b 533 183 483 189 518 183 l 533 736 l 504 736 m 564 182 b 821 136 638 179 724 164 l 822 260 b 694 314 793 294 750 313 b 564 258 646 314 601 296 "},"E":{"ha":817,"x_min":0,"x_max":0,"o":"m 504 893 b 646 833 554 863 601 843 b 801 822 683 826 735 822 l 613 617 l 760 617 l 690 474 l 472 475 l 472 107 l 529 101 b 803 228 622 103 713 144 l 811 221 b 440 -22 729 58 606 -22 b 144 90 319 -22 221 15 b 28 386 68 167 29 265 b 103 642 26 478 51 563 b 307 808 154 721 222 776 l 311 803 b 142 486 197 719 140 614 b 224 243 143 390 169 310 b 240 297 235 261 240 279 l 240 665 l 504 893 m 381 457 b 342 322 381 407 368 363 b 244 221 322 293 290 260 b 440 111 293 167 358 129 l 440 775 l 381 725 m 471 513 l 631 686 l 471 747 "},"F":{"ha":890,"x_min":0,"x_max":0,"o":"m 4 426 b 74 563 4 481 28 525 b 221 614 117 597 167 614 l 267 614 l 267 747 b 463 785 339 746 404 758 b 631 897 503 804 560 842 b 797 858 678 871 733 858 b 929 889 840 857 883 868 l 938 886 b 742 715 914 771 849 714 b 607 750 689 717 644 728 l 607 614 l 800 614 l 758 492 l 607 492 l 607 236 b 526 6 607 138 581 60 b 317 -107 481 -32 410 -69 b 86 -168 221 -146 144 -167 b 6 -146 68 -167 40 -158 b -76 -125 -29 -133 -57 -126 b -143 -193 -107 -124 -129 -146 l -154 -193 b -122 -60 -154 -139 -143 -94 b -7 1 -97 -19 -58 0 b 108 -37 35 0 74 -12 b 192 -86 149 -67 176 -82 b 250 -24 215 -85 235 -64 b 267 65 261 7 267 36 l 267 492 l 142 492 b 14 426 86 492 43 469 l 4 426 m 397 215 b 258 -76 397 94 351 -3 b 476 224 404 -31 476 69 l 476 739 b 397 717 444 724 418 717 "},"G":{"ha":925,"x_min":0,"x_max":0,"o":"m 501 892 b 754 814 592 840 676 814 b 801 818 761 814 776 815 l 838 821 l 842 815 l 642 658 b 883 372 806 617 886 521 b 707 82 882 257 822 161 b 372 -22 603 13 492 -22 b 128 71 274 -22 193 8 b 29 313 63 135 29 215 b 176 644 29 432 78 543 b 251 715 206 674 231 697 b 424 838 294 747 351 789 b 501 892 447 854 474 872 m 392 500 l 615 682 l 392 774 m 247 165 b 453 40 308 94 376 53 l 453 486 b 392 460 432 482 413 472 l 392 333 b 335 239 394 310 375 279 b 247 165 333 238 304 213 m 483 39 b 740 181 590 38 675 85 b 622 213 703 203 663 214 b 483 181 583 213 538 201 l 483 39 m 483 213 b 625 239 528 231 575 239 b 750 208 671 240 713 229 b 772 307 767 239 774 272 l 771 338 b 618 294 717 308 667 294 b 483 326 582 294 538 306 l 483 213 m 253 654 b 167 415 194 594 165 514 b 232 196 168 321 189 247 b 253 253 246 204 253 224 m 483 363 b 622 321 533 336 579 322 b 765 371 668 321 715 338 b 701 479 764 414 742 450 b 578 519 665 504 624 518 b 483 499 547 521 515 514 "},"H":{"ha":999,"x_min":0,"x_max":0,"o":"m 22 750 b 81 864 31 793 50 832 b 196 914 114 897 153 914 b 292 894 218 914 250 907 b 389 875 335 882 367 876 b 458 886 406 875 429 879 l 531 904 l 533 899 b 396 792 469 867 424 832 b 350 626 365 749 350 694 l 350 339 b 243 86 350 250 314 165 b 421 353 361 146 421 235 l 421 626 b 717 910 421 783 519 878 l 719 907 b 554 694 610 850 554 779 l 554 550 l 779 733 b 917 568 849 685 894 631 b 939 347 932 521 940 447 b 893 157 938 269 922 206 b 804 51 869 118 840 83 b 694 -29 785 33 749 7 b 650 -94 665 -50 651 -71 b 689 -117 649 -110 663 -117 b 735 -143 721 -117 736 -125 b 685 -187 733 -171 717 -186 b 603 -108 639 -187 604 -154 b 644 -10 603 -85 617 -51 b 728 110 700 68 728 108 b 785 265 760 163 779 214 b 672 290 744 283 707 292 b 511 244 622 289 568 274 b 375 144 460 217 414 183 b 432 146 388 144 419 146 b 582 135 481 142 531 138 b 678 182 614 133 646 149 l 697 165 l 569 -25 b 290 36 500 17 407 38 b 183 18 253 36 217 31 b 113 -51 138 3 114 -19 b 128 -122 114 -67 128 -106 b 96 -156 128 -143 117 -154 b 57 -107 71 -154 58 -137 b 139 46 57 -67 85 -17 b 224 193 194 108 222 158 b 188 231 225 217 213 229 b 111 181 164 231 138 214 l 106 211 b 221 324 104 268 143 306 l 222 358 b 192 417 224 381 213 400 b 129 439 174 432 153 439 b 29 411 97 440 64 431 b 89 504 35 451 54 482 b 197 538 119 525 156 536 b 217 640 199 571 204 606 b 269 731 231 681 249 710 l 333 793 b 251 776 300 781 272 775 b 182 793 236 776 213 782 b 113 810 153 804 129 810 b 22 750 83 811 53 790 m 554 299 b 671 318 593 311 632 318 b 786 294 704 318 743 310 l 786 450 b 667 429 747 435 707 428 b 554 449 639 429 601 436 m 554 478 b 672 456 581 471 621 463 b 783 479 711 454 749 463 b 685 625 783 544 750 593 l 554 515 "},"I":{"ha":660,"x_min":0,"x_max":0,"o":"m 210 542 b 332 822 211 647 251 740 b 211 792 292 801 251 792 b 97 808 186 797 149 803 b 19 746 67 808 40 788 l 7 749 b 63 850 17 790 36 824 b 168 894 92 879 128 894 b 247 886 186 894 213 892 b 324 876 282 881 307 878 b 439 897 356 875 394 882 l 444 889 b 332 631 368 829 331 743 b 347 447 332 589 338 528 b 364 265 357 367 363 306 b 217 128 365 175 317 129 b 371 33 275 67 326 35 b 436 64 401 32 424 43 b 453 138 449 81 454 106 b 429 374 451 186 444 265 b 404 626 414 490 406 575 b 447 810 403 703 418 764 b 610 893 482 865 536 893 l 610 879 b 524 776 550 865 522 831 b 550 522 525 692 535 607 b 576 278 568 428 576 346 b 522 74 576 197 558 129 b 344 -21 479 8 421 -22 b 204 11 307 -19 261 -10 b 68 46 146 32 100 44 b -28 -24 31 47 -1 25 l -36 -22 b 6 101 -35 28 -21 69 b 125 156 36 138 76 156 b 163 153 135 156 156 153 b 239 185 200 151 226 163 b 253 271 249 201 253 231 b 139 444 253 389 215 446 b 36 422 107 444 72 438 b 182 542 47 489 114 542 "},"J":{"ha":701,"x_min":0,"x_max":0,"o":"m 10 714 b 85 846 8 768 33 811 b 235 896 128 876 178 893 b 392 869 281 893 332 885 b 539 844 456 854 504 846 b 729 892 585 843 649 860 l 731 869 b 631 733 681 824 647 779 b 608 565 615 693 608 638 b 611 451 608 553 610 515 b 613 339 613 419 613 382 b 585 140 613 258 603 192 b 474 -22 564 82 526 28 b 218 -164 379 -112 294 -160 b 118 -139 194 -162 161 -154 b 22 -117 75 -124 43 -117 b -54 -186 -6 -115 -31 -139 l -64 -181 b 108 -10 -35 -65 22 -8 b 186 -21 128 -10 154 -14 b 264 -35 221 -29 247 -33 b 340 40 315 -33 342 -8 b 268 215 339 113 315 171 b 93 290 225 256 167 281 b 189 329 118 317 150 329 b 289 306 219 329 253 321 b 236 426 288 358 271 399 b 107 465 204 453 161 465 b 213 515 129 497 164 514 b 301 493 247 515 278 508 b 372 665 304 558 328 615 b 522 782 401 697 451 736 b 351 739 454 751 397 738 b 236 764 324 740 285 749 b 121 792 185 781 146 790 b 40 742 67 790 39 774 b 51 718 40 726 44 719 b 75 722 56 718 64 719 b 99 725 85 724 92 725 b 147 678 131 725 147 710 b 89 624 146 640 126 622 b 31 651 65 624 46 633 b 10 714 17 668 10 689 m 633 819 b 411 513 485 746 411 644 l 411 146 b 274 -90 411 24 365 -56 b 483 182 414 -75 483 17 l 483 486 b 519 669 483 557 496 618 b 633 819 542 717 579 767 "},"K":{"ha":942,"x_min":0,"x_max":0,"o":"m 393 838 b 228 774 328 794 272 772 b 140 781 197 778 168 779 b 17 706 89 782 49 757 l 8 710 b 181 892 21 831 78 892 b 258 881 199 892 224 888 b 335 869 293 874 318 869 b 447 897 361 869 399 879 l 449 883 b 375 636 400 796 375 713 l 375 346 b 325 214 375 289 358 246 b 168 75 321 210 268 164 l 178 64 b 313 131 221 90 267 113 b 439 325 397 185 439 250 l 439 618 b 521 897 439 707 467 800 l 550 897 b 467 588 494 801 467 697 b 686 775 535 631 608 693 l 832 613 b 607 439 765 567 690 508 b 694 378 642 424 671 403 b 790 247 726 346 758 301 b 875 113 833 176 861 132 l 910 146 l 931 128 l 793 -21 b 683 140 747 24 710 78 l 536 -24 b 421 13 501 -8 464 3 b 304 31 374 25 335 31 b 61 -25 247 31 165 13 l 46 0 b 142 97 92 43 124 75 b 194 218 176 142 193 182 b 181 272 196 239 190 257 b 133 300 169 290 154 300 b 76 281 117 301 97 294 b 161 363 92 336 119 364 b 244 338 189 361 217 353 l 246 368 b 214 461 247 403 236 433 b 128 504 190 490 163 504 b 50 490 107 506 81 500 b 157 578 68 547 104 576 b 236 554 178 578 204 569 b 393 838 235 667 288 761 m 372 147 b 413 149 382 147 403 149 b 604 106 482 149 546 135 l 664 174 b 494 336 604 282 549 336 l 467 336 b 372 147 469 263 438 199 m 467 376 l 485 376 l 681 539 l 590 643 b 467 553 560 618 518 588 "},"L":{"ha":803,"x_min":0,"x_max":0,"o":"m 151 894 b 240 878 172 894 201 889 b 329 861 279 867 308 861 b 440 890 358 860 396 869 l 449 881 b 335 665 369 815 331 744 b 349 407 339 618 343 532 b 319 232 350 344 340 286 b 231 78 304 192 275 140 b 422 429 365 176 429 293 l 411 660 b 468 840 407 742 426 803 b 653 893 508 875 569 893 l 653 872 b 529 746 567 871 525 828 b 540 526 532 706 536 632 b 492 300 543 438 526 363 b 332 131 463 246 410 190 b 421 157 358 139 389 147 b 529 172 461 168 497 174 b 675 133 592 171 640 157 b 742 94 710 110 732 97 b 783 125 753 96 767 106 l 806 107 l 653 -37 b 400 57 576 25 492 57 b 94 -22 308 56 207 29 l 85 -6 b 233 218 183 71 232 144 b 115 317 233 271 194 304 b 182 347 135 338 157 347 b 232 338 190 347 207 344 l 233 363 b 126 454 232 418 183 454 b 79 446 111 454 96 451 b 181 511 96 489 129 511 b 225 501 201 511 217 508 b 219 579 225 519 219 563 b 332 811 218 657 256 735 b 213 772 288 785 247 771 b 149 785 197 772 176 776 b 88 799 122 793 101 797 b 3 739 53 800 25 779 l -7 749 b 151 894 13 846 65 894 "},"M":{"ha":1197,"x_min":0,"x_max":0,"o":"m 264 706 b 410 806 289 732 338 765 b 585 897 442 822 500 853 b 693 746 649 861 685 811 l 919 894 l 1063 797 l 1115 838 l 1135 821 b 1079 696 1097 778 1079 736 l 1079 185 b 1111 97 1079 126 1090 97 b 1140 118 1118 99 1128 106 l 1163 99 l 1036 -19 b 933 157 968 4 933 63 l 933 726 l 839 799 l 813 783 l 813 500 l 886 500 l 813 399 l 813 163 l 844 186 l 864 167 l 654 -18 b 514 108 604 38 557 79 l 514 121 b 549 171 538 139 549 156 l 549 400 l 399 400 l 399 118 b 217 -79 399 11 322 -72 b 69 -60 168 -69 118 -64 b -26 -121 26 -57 -6 -78 l -36 -119 b 107 47 -35 -15 3 35 b 211 78 156 54 190 65 b 254 172 240 97 254 129 b 214 289 254 215 240 254 b 106 343 185 324 149 342 b 26 328 78 343 51 338 b 175 454 42 413 90 454 b 264 706 175 558 204 643 m 394 753 b 314 599 340 714 314 663 l 314 199 b 236 56 314 128 288 81 b 285 46 254 49 271 46 b 368 144 340 46 368 79 l 368 657 b 394 753 368 686 376 718 m 467 793 b 399 644 421 750 399 700 l 399 425 l 451 500 l 549 500 l 549 743 b 467 793 549 774 521 790 m 692 500 l 782 500 l 782 760 l 692 701 m 692 153 b 740 101 692 126 708 110 l 782 136 l 782 400 l 692 400 l 692 153 "},"N":{"ha":983,"x_min":0,"x_max":0,"o":"m 608 893 b 910 569 807 836 908 729 b 701 122 911 446 842 296 b 806 139 736 133 771 139 b 919 121 826 139 865 133 l 943 154 l 969 140 l 875 -21 b 750 0 835 -7 793 0 b 581 -97 676 0 621 -32 l 569 -86 b 639 119 576 -32 599 36 b 732 322 669 182 700 249 b 614 374 697 357 658 374 b 488 325 581 372 539 357 l 488 172 b 418 -15 488 101 464 39 b 240 -103 369 -75 310 -104 b 118 -79 204 -103 164 -94 b 22 -57 78 -65 46 -58 b -65 -81 -3 -56 -32 -64 l -69 -75 b 97 31 -26 -4 29 32 b 161 26 111 31 132 29 b 226 22 190 24 211 22 b 319 106 289 22 321 50 b 269 196 318 144 301 175 b 165 225 242 215 207 225 b 114 221 154 225 125 221 b 211 276 142 257 174 275 b 278 267 218 276 240 274 b 129 389 257 347 208 388 b 83 385 118 389 103 388 b 172 438 104 419 133 438 b 279 408 206 438 242 428 b 83 556 261 504 196 554 b 178 601 110 586 140 601 b 278 579 206 600 239 593 l 278 690 l 608 893 m 404 231 b 306 8 404 115 371 42 b 336 7 313 8 329 7 b 431 71 376 8 408 31 b 457 186 449 103 457 142 l 457 753 l 404 725 m 488 575 b 629 519 538 539 585 521 b 754 578 672 518 714 538 b 649 706 738 631 703 674 b 488 754 603 733 549 750 m 488 357 b 619 401 531 386 575 401 b 740 357 663 401 703 386 b 769 494 760 401 769 447 b 763 546 771 514 768 531 b 624 492 719 508 674 490 b 488 542 578 492 533 508 "},"O":{"ha":969,"x_min":0,"x_max":0,"o":"m 513 915 b 806 810 631 903 729 867 b 938 540 897 740 942 650 b 747 176 933 414 869 293 b 376 0 626 61 503 1 b 122 122 275 -3 190 38 b 29 396 61 199 31 290 b 81 639 28 456 46 536 b 513 915 175 703 319 794 m 275 728 b 163 464 199 650 161 563 b 236 240 164 376 188 303 b 275 336 263 274 275 306 l 275 728 m 394 429 b 347 310 394 392 379 353 b 257 213 331 289 300 256 b 447 117 326 150 390 118 l 447 793 l 394 793 m 481 633 b 619 571 526 592 574 571 b 751 635 671 569 715 592 b 481 790 703 724 613 775 m 481 117 b 654 188 542 118 600 142 b 769 339 701 226 740 276 b 626 421 738 393 689 421 b 481 350 576 421 528 397 m 481 394 b 626 446 528 429 576 446 b 783 376 688 447 740 424 b 804 463 797 408 804 436 b 768 606 806 525 793 572 b 614 544 719 564 668 543 b 481 588 574 544 529 558 l 481 394 "},"P":{"ha":942,"x_min":0,"x_max":0,"o":"m 54 819 b 226 894 106 869 164 894 b 399 728 322 894 397 824 l 463 769 l 463 894 l 493 894 l 493 790 l 640 896 b 760 801 697 853 738 822 b 876 578 838 731 876 657 l 876 144 l 675 -21 b 493 33 607 8 546 26 l 493 -192 b 461 -190 481 -190 471 -190 l 283 -190 b 251 -192 271 -190 261 -190 l 251 51 b 13 -3 176 50 97 32 l 4 10 b 249 179 53 90 133 147 b 31 463 233 303 160 397 l 31 468 l 251 625 l 251 715 b 144 815 251 782 215 815 b 54 803 121 815 90 811 l 54 819 m 147 518 l 251 433 l 251 589 m 463 -154 l 463 736 l 404 697 l 404 -154 m 493 550 b 611 504 522 521 561 506 b 724 550 653 504 690 519 b 664 700 722 607 703 657 b 519 769 626 743 578 767 l 493 757 m 493 342 b 607 374 528 363 565 372 b 724 340 646 374 685 363 l 724 511 b 611 479 690 490 653 479 b 493 511 564 479 525 490 m 493 192 b 724 119 581 178 657 154 l 724 301 b 599 347 686 332 644 347 b 493 313 568 346 533 335 "},"Q":{"ha":1006,"x_min":0,"x_max":0,"o":"m 511 896 b 799 783 624 881 719 843 b 938 521 892 713 938 625 b 772 181 938 406 882 292 l 888 88 b 925 61 908 69 921 60 b 956 79 928 63 938 68 l 979 57 l 842 -64 l 660 86 b 372 -21 556 14 460 -22 b 117 100 265 -21 181 19 b 29 376 60 174 31 267 b 79 608 29 433 46 511 b 188 679 114 629 150 653 l 511 896 m 269 694 b 156 435 192 624 154 538 b 231 218 157 351 182 279 b 269 317 257 249 269 282 l 269 694 m 390 408 b 343 289 390 371 375 331 b 253 190 328 268 297 235 b 444 97 321 128 385 97 l 444 758 l 390 758 m 478 603 b 617 543 522 563 568 543 b 750 606 672 542 717 563 b 478 756 700 690 610 740 m 478 96 b 651 165 539 97 597 119 b 769 315 699 203 738 253 b 624 393 732 367 683 393 b 478 324 574 393 525 369 m 478 368 b 626 418 525 401 575 418 b 783 349 688 419 740 396 b 804 442 797 381 804 413 b 768 576 806 499 793 543 b 613 515 719 535 667 514 b 478 558 572 515 526 529 l 478 368 "},"R":{"ha":976,"x_min":0,"x_max":0,"o":"m 61 819 b 236 893 114 868 172 893 b 401 732 332 892 400 828 l 640 897 l 832 639 l 642 507 b 825 290 726 458 788 386 b 864 186 833 267 846 232 b 919 93 879 147 899 117 l 951 119 l 971 101 l 844 -21 l 825 -21 b 747 83 796 -3 771 32 b 699 210 739 101 722 144 b 514 399 658 322 596 386 l 496 399 l 496 165 b 621 106 539 151 581 132 l 650 135 l 671 114 l 526 -29 b 289 56 442 28 363 56 b 18 -1 199 56 108 36 l 13 4 b 265 179 78 89 163 147 b 39 463 250 306 175 400 l 39 469 l 261 635 l 261 728 b 226 793 261 754 250 776 b 154 815 206 808 182 815 b 61 803 131 817 99 813 l 61 819 m 407 179 b 465 172 429 179 449 176 l 465 744 l 407 700 m 496 435 l 693 578 l 536 790 l 496 763 m 163 522 l 261 444 l 261 596 "},"S":{"ha":1006,"x_min":0,"x_max":0,"o":"m 385 900 b 644 810 465 868 551 839 l 676 867 l 706 847 l 574 613 b 636 615 586 613 621 615 b 856 554 721 614 793 593 b 964 365 926 508 963 444 b 849 126 965 276 926 197 b 617 -21 800 81 722 32 l 451 47 b 169 -33 339 -7 244 -33 b 61 -4 128 -33 92 -24 b 7 86 25 17 7 47 b 71 196 7 133 28 169 b 200 229 106 217 149 228 b 321 219 238 229 278 226 l 356 283 l 306 283 b 139 326 243 283 188 297 b 50 465 81 361 51 408 b 157 597 49 522 85 567 b 236 769 153 649 179 707 b 385 900 257 790 306 835 m 356 776 b 282 751 326 776 301 768 b 249 682 261 733 250 711 b 383 597 249 625 293 597 b 460 601 403 597 428 599 l 533 608 l 579 692 b 356 776 506 747 431 775 m 465 410 b 618 422 525 418 575 422 b 796 301 736 422 796 382 b 629 136 797 249 742 193 l 743 92 b 868 313 828 163 869 236 b 629 494 867 433 786 494 b 504 485 581 494 539 492 m 461 481 b 346 474 440 479 401 476 b 168 572 253 472 194 504 b 133 507 144 547 133 525 b 331 401 135 436 200 401 b 392 404 338 401 358 403 l 421 406 l 461 481 m 358 214 b 579 153 429 199 503 179 b 672 258 639 189 671 224 b 644 292 672 275 663 286 b 594 297 632 296 615 297 b 394 283 546 297 479 293 m 397 63 b 146 122 304 103 221 122 b 88 110 122 122 103 118 b 58 58 68 97 58 81 b 96 8 58 38 71 21 b 163 -4 115 0 138 -4 b 397 63 247 -3 325 19 "},"T":{"ha":883,"x_min":0,"x_max":0,"o":"m 15 636 b 343 893 47 810 157 896 b 542 861 389 892 456 882 b 740 828 632 840 697 829 b 858 900 789 825 829 849 l 868 897 b 810 757 868 839 849 792 b 663 704 772 724 722 706 b 619 706 651 704 638 704 l 619 106 b 851 288 710 121 786 182 l 864 283 b 490 -22 825 90 686 -22 b 201 79 375 -22 279 11 b 79 357 121 150 81 243 b 146 585 79 436 101 513 b 315 756 189 653 244 710 b 239 761 301 760 276 761 b 29 636 153 763 83 721 l 15 636 m 350 751 b 214 436 257 658 213 554 b 322 182 215 332 251 247 b 365 282 351 211 365 244 l 365 747 l 350 751 m 501 396 b 351 165 501 329 451 253 b 463 108 388 136 425 118 b 589 99 492 101 533 99 l 589 706 l 501 726 "},"U":{"ha":1050,"x_min":0,"x_max":0,"o":"m 425 799 b 299 776 374 783 331 776 b 257 778 289 776 275 776 b 214 781 236 779 222 781 b 32 644 128 782 67 736 l 17 644 b 60 814 18 713 32 769 b 207 893 94 867 143 893 b 319 876 233 893 271 888 b 435 860 371 865 410 860 b 532 893 471 858 503 869 l 563 893 l 563 561 b 667 532 596 542 631 532 b 765 561 697 532 731 542 l 765 726 l 708 765 l 661 714 l 639 729 l 776 893 l 901 808 l 969 865 l 981 856 b 924 711 943 804 924 757 l 924 181 b 951 83 924 133 933 101 l 990 121 l 1011 101 l 885 -22 l 860 -22 b 768 146 807 21 776 76 b 425 -22 657 32 543 -24 b 176 83 324 -21 240 14 b 82 339 114 151 83 236 b 188 614 82 436 117 528 b 425 799 249 688 328 749 m 467 792 b 293 639 394 757 336 707 b 226 418 250 571 228 497 b 304 190 225 326 251 250 b 353 317 336 221 353 263 l 353 571 b 467 792 353 647 390 721 m 532 847 b 479 721 497 808 479 767 l 479 392 b 324 171 479 318 428 244 b 421 119 356 144 388 128 b 532 110 447 113 485 110 l 532 847 m 563 388 b 668 414 594 406 629 414 b 765 389 700 414 732 406 l 765 531 b 664 504 732 513 699 504 b 563 531 626 506 593 514 m 667 388 b 563 357 632 389 597 378 l 563 113 b 765 189 625 113 715 149 l 765 357 b 667 388 733 378 701 388 "},"V":{"ha":856,"x_min":0,"x_max":0,"o":"m 7 736 b 164 897 26 844 79 899 b 358 718 260 897 324 838 l 711 903 b 807 589 775 810 807 706 b 694 254 807 479 769 368 b 464 -22 651 188 575 96 b 338 22 415 7 374 22 b 200 -10 300 22 254 11 l 175 3 b 242 242 218 104 240 185 b 110 376 242 324 192 375 l 79 374 b 174 465 79 428 118 465 b 257 433 201 467 229 456 b 226 643 258 510 247 579 b 94 785 197 731 154 778 b 14 732 71 783 43 767 l 7 736 m 368 686 b 389 551 381 647 388 603 b 514 529 428 538 469 531 b 654 563 558 529 606 540 b 582 801 653 642 629 721 l 368 686 m 517 503 b 389 521 476 504 435 510 b 367 351 389 467 382 411 b 469 365 404 361 439 365 b 624 331 522 365 574 354 b 657 529 646 385 657 451 b 517 503 606 511 558 503 m 428 133 b 521 115 460 133 490 128 b 614 304 565 186 596 249 b 476 339 568 326 522 338 b 354 317 432 339 392 332 b 233 58 342 253 301 167 l 247 56 b 428 133 318 107 379 133 "},"W":{"ha":1488,"x_min":0,"x_max":0,"o":"m 15 660 b 58 817 15 724 29 776 b 197 892 90 865 136 890 b 299 865 221 890 254 881 b 403 839 342 849 376 840 b 514 892 443 838 479 856 l 546 892 l 546 103 b 632 182 581 125 610 151 b 608 318 617 231 608 276 b 911 788 611 524 713 681 b 824 778 875 781 846 776 b 747 783 807 778 764 783 b 593 689 671 783 619 751 l 575 694 b 751 893 599 829 658 894 b 847 868 774 892 806 883 b 944 844 890 853 922 846 b 1025 892 983 843 1010 860 l 1060 892 l 1060 550 b 1140 533 1089 539 1115 533 b 1222 550 1164 533 1192 539 l 1222 725 l 1176 772 l 1138 731 l 1108 753 l 1244 892 l 1344 793 l 1432 851 l 1443 840 b 1382 693 1403 793 1382 744 l 1382 169 b 1407 83 1382 129 1390 101 l 1456 119 l 1475 97 l 1340 -22 b 1226 144 1272 11 1235 67 b 911 -22 1117 33 1013 -22 b 647 150 793 -22 704 35 b 379 -22 568 35 479 -24 b 153 82 283 -21 208 14 b 74 324 101 146 75 226 b 163 600 72 422 101 515 b 386 790 218 676 293 740 b 279 771 350 778 314 771 b 197 776 261 771 215 776 b 35 657 121 776 67 736 l 15 660 m 424 782 b 256 625 351 747 296 694 b 199 401 218 558 199 483 b 278 186 200 308 226 238 b 321 311 307 213 321 254 l 321 543 b 424 782 321 631 356 710 m 515 836 b 444 713 468 806 444 764 l 444 392 b 299 165 444 296 396 219 b 456 96 347 119 399 96 l 515 96 l 515 836 m 1029 836 b 974 725 992 811 974 774 l 974 394 b 821 167 974 299 922 222 b 1029 96 874 118 943 94 l 1029 836 m 1060 378 b 1138 394 1083 389 1108 394 b 1222 378 1169 394 1197 389 l 1222 521 b 1135 504 1192 510 1163 504 b 1060 521 1108 504 1083 510 m 1060 104 b 1222 182 1110 117 1164 143 l 1222 347 b 1138 365 1189 360 1161 365 b 1060 347 1119 365 1094 360 m 954 783 b 790 625 883 746 829 693 b 733 403 751 557 732 482 b 800 186 735 321 757 249 b 850 318 833 218 850 263 l 850 546 b 954 783 850 633 885 713 "},"X":{"ha":814,"x_min":0,"x_max":0,"o":"m 183 893 b 275 858 224 892 254 881 b 353 726 296 838 321 793 b 436 558 368 696 396 640 l 588 896 b 767 793 657 851 717 817 l 711 672 l 557 739 l 461 529 l 461 514 l 701 514 l 657 411 l 501 411 b 621 165 536 338 575 256 b 685 88 642 125 663 100 l 725 128 l 749 104 l 619 -22 b 472 150 574 -12 525 46 b 375 365 472 150 440 222 l 200 -21 b 18 83 143 26 83 61 l 75 214 l 238 146 l 347 392 l 347 411 l 113 411 l 156 514 l 304 514 l 200 722 b 100 790 182 757 138 790 b 7 754 76 792 46 779 l 0 761 b 183 893 44 849 106 893 "},"Y":{"ha":932,"x_min":0,"x_max":0,"o":"m 82 863 b 188 892 117 881 151 890 b 364 758 276 892 346 843 b 617 863 460 828 543 863 b 807 760 700 863 764 828 b 861 540 844 700 863 628 b 776 253 860 419 831 324 b 508 136 715 175 626 136 l 256 136 b 121 110 201 136 156 128 b 53 0 75 86 51 50 b 175 -117 54 -68 104 -117 b 250 -101 196 -117 221 -111 b 421 -32 299 -78 356 -56 b 528 -17 449 -22 485 -17 b 625 -46 567 -17 599 -26 b 669 -133 654 -67 668 -96 b 610 -193 669 -171 650 -192 b 560 -139 578 -192 561 -174 b 582 -76 561 -122 581 -89 b 557 -58 582 -64 574 -57 b 417 -125 543 -58 496 -81 b 214 -194 332 -172 264 -196 b 76 -142 160 -194 114 -176 b 18 -7 38 -104 18 -60 b 81 122 18 47 39 90 b 222 167 118 151 165 165 l 222 240 b 172 347 222 275 206 311 b 74 418 144 376 111 400 l 74 429 b 115 432 83 429 106 432 b 222 400 156 432 190 421 l 222 456 b 174 551 222 488 206 519 b 78 611 144 578 113 599 l 78 619 b 133 628 96 625 115 628 b 222 608 158 628 188 621 l 222 744 b 82 851 222 815 175 850 l 82 863 m 361 167 l 424 167 l 424 756 l 361 728 m 457 606 b 567 560 492 576 528 561 b 692 610 611 560 653 576 b 540 789 674 729 622 789 b 457 772 510 790 482 785 m 457 393 b 567 432 494 418 532 431 b 696 385 607 432 650 417 b 704 490 701 431 704 467 b 699 579 704 515 703 544 b 565 529 649 546 604 529 b 457 569 529 531 493 543 m 457 167 l 504 167 b 628 226 553 167 594 186 b 688 354 657 261 678 303 b 571 401 651 386 613 401 b 457 360 536 401 497 388 "},"Z":{"ha":749,"x_min":0,"x_max":0,"o":"m 36 740 b 168 894 92 801 136 853 b 413 832 261 854 343 833 b 681 883 494 831 583 849 l 689 874 b 532 614 638 808 585 722 l 494 538 l 650 538 l 631 492 l 469 492 b 429 428 463 476 449 454 l 600 428 l 578 382 l 397 382 b 160 132 349 314 269 231 l 81 61 b 339 153 174 107 260 138 b 435 163 368 160 400 163 b 636 114 506 163 574 146 l 683 164 l 707 144 l 569 -21 b 288 54 463 29 369 54 b -14 -11 200 54 100 32 l -24 0 b 117 200 28 58 74 125 b 224 382 154 263 189 324 l 67 382 l 86 428 l 246 428 b 288 492 256 443 269 464 l 118 492 l 136 538 l 319 538 b 610 828 396 636 493 732 b 283 729 488 761 379 728 b 101 763 229 731 169 742 l 57 721 l 36 740 "},"[":{"ha":458,"x_min":0,"x_max":0,"o":"m 418 1063 l 418 1033 l 283 1033 l 283 -137 l 418 -137 l 418 -167 l 147 -167 l 147 1063 "},"\\":{"ha":397,"x_min":0,"x_max":0,"o":"m 324 92 l 369 136 l 388 115 l 253 -15 b 63 93 207 29 144 65 b 101 199 89 114 101 149 l 101 554 l 32 554 l 43 628 l 101 628 l 101 772 b 244 872 142 792 190 825 l 372 840 l 344 740 l 232 768 l 232 154 "},"]":{"ha":458,"x_min":0,"x_max":0,"o":"m 308 -167 l 38 -167 l 38 -137 l 172 -137 l 172 1033 l 38 1033 l 38 1063 l 308 1063 "},"^":{"ha":1383,"x_min":0,"x_max":0,"o":"m 626 983 l 756 983 l 1103 604 l 1038 604 l 690 888 l 343 604 l 279 604 "},"_":{"ha":692,"x_min":0,"x_max":0,"o":"m 690 -325 l 0 -325 l 0 -229 l 690 -229 "},"`":{"ha":692,"x_min":0,"x_max":0,"o":"m 278 958 b 475 747 338 874 404 804 l 421 724 b 181 924 319 778 240 844 "},"a":{"ha":518,"x_min":0,"x_max":0,"o":"m 117 596 b 244 653 168 593 211 613 l 431 583 l 467 613 l 475 606 b 429 492 444 557 429 519 l 429 138 b 461 92 429 119 440 104 l 485 113 l 506 90 l 385 -15 b 304 139 332 13 306 64 l 132 -15 l 119 -15 b 26 167 58 43 28 104 b 156 421 26 246 69 331 l 92 597 l 117 596 m 179 422 l 304 351 l 304 503 l 124 575 m 175 399 b 138 268 150 357 138 314 b 211 89 138 194 163 135 l 304 176 l 304 326 l 175 399 "},"b":{"ha":542,"x_min":0,"x_max":0,"o":"m 32 851 b 118 807 69 844 97 829 l 133 807 b 261 876 165 853 208 875 l 264 871 b 201 753 222 836 201 796 l 201 493 l 385 653 b 471 475 435 614 471 540 l 471 86 b 285 -15 399 68 336 33 b 38 110 203 56 121 97 b 76 201 64 126 76 157 l 76 547 l 8 547 l 8 626 l 76 626 l 76 760 b 28 846 76 788 60 817 l 32 851 m 201 172 l 346 103 l 346 471 b 301 531 346 494 331 514 l 201 453 "},"c":{"ha":390,"x_min":0,"x_max":0,"o":"m 68 542 b 228 653 132 567 185 604 l 365 557 l 307 467 l 193 544 l 193 146 l 301 90 l 358 136 l 376 115 l 214 -17 b 29 78 161 38 100 68 b 68 181 56 99 68 132 l 68 542 "},"d":{"ha":532,"x_min":0,"x_max":0,"o":"m 418 568 b 468 614 431 592 447 607 l 475 611 b 461 549 465 599 461 578 l 461 88 b 268 -15 385 64 319 31 b 31 93 197 39 118 75 b 68 201 56 110 68 146 l 68 542 b 179 590 111 551 149 567 l 24 700 l 24 843 m 194 532 l 194 151 l 336 96 l 336 483 l 232 557 "},"e":{"ha":426,"x_min":0,"x_max":0,"o":"m 68 542 b 247 653 122 564 182 601 l 421 465 b 193 282 349 410 272 349 l 193 138 l 299 88 l 383 147 l 403 126 b 215 -15 360 96 297 49 b 29 60 161 22 99 47 b 68 161 56 79 68 113 l 68 542 m 186 318 l 311 421 l 186 554 "},"f":{"ha":397,"x_min":0,"x_max":0,"o":"m 101 772 b 244 872 142 792 190 825 l 372 840 l 344 740 l 232 768 l 232 628 l 332 628 l 319 554 l 232 554 l 232 154 l 324 92 l 369 136 l 388 115 l 253 -15 b 63 93 207 29 144 65 b 101 199 89 114 101 149 l 101 554 l 32 554 l 43 628 l 101 628 l 101 772 "},"g":{"ha":583,"x_min":0,"x_max":0,"o":"m 471 551 l 569 622 l 569 478 l 468 493 l 468 160 b 514 42 471 126 486 88 b 561 -60 543 -4 558 -37 b 540 -106 560 -81 553 -96 l 400 -192 b 233 -162 346 -172 290 -162 b 79 -192 174 -162 122 -172 l 50 -165 l 192 3 l 68 99 l 68 560 b 274 653 119 572 188 603 m 189 157 l 271 99 l 347 186 l 347 499 l 189 550 m 163 -78 b 279 -65 197 -68 236 -64 b 478 -104 343 -65 410 -78 l 478 -90 b 344 135 399 -22 354 53 "},"h":{"ha":542,"x_min":0,"x_max":0,"o":"m 32 854 b 118 808 69 846 97 831 l 133 808 b 261 878 165 854 208 876 l 264 872 b 201 754 222 838 201 797 l 201 501 l 385 654 b 471 478 442 611 471 551 l 471 122 b 360 -60 471 51 433 -10 b 124 -157 289 -108 211 -142 l 119 -143 b 271 -65 190 -115 240 -89 b 346 76 321 -28 346 19 l 346 472 b 301 544 346 504 331 529 l 201 463 l 201 118 l 239 79 l 136 -15 l 33 74 l 76 118 l 76 556 l 8 556 l 8 629 l 76 629 l 76 761 b 28 847 76 790 60 818 l 32 854 "},"i":{"ha":288,"x_min":0,"x_max":0,"o":"m 258 857 l 157 704 l 146 704 l 176 857 m 131 653 l 235 554 l 200 514 l 200 139 b 233 90 200 119 211 103 l 256 111 l 276 89 l 154 -15 b 68 133 97 8 68 57 l 68 515 l 28 561 "},"j":{"ha":329,"x_min":0,"x_max":0,"o":"m 283 857 l 183 704 l 171 704 l 201 857 m 158 653 b 282 531 189 614 231 574 b 214 308 236 457 213 382 b 229 88 218 268 224 194 b 56 -171 232 -26 174 -112 l 40 -151 b 118 22 93 -106 119 -47 b 101 169 117 54 111 104 b 85 319 92 236 86 286 b 122 507 85 379 97 442 l 81 550 l 40 521 l 25 542 "},"k":{"ha":538,"x_min":0,"x_max":0,"o":"m 136 806 b 264 875 168 851 211 874 l 267 869 b 204 753 225 835 204 796 l 204 483 l 371 653 l 492 514 l 368 392 b 463 233 419 347 451 294 l 474 161 b 500 96 478 138 488 115 l 521 115 l 543 90 l 419 -15 b 356 122 382 14 360 60 l 233 -15 b 42 78 167 28 103 60 b 79 165 67 94 79 124 l 79 553 l 11 553 l 11 626 l 79 626 l 79 758 b 31 844 79 786 63 815 l 35 850 b 121 806 71 843 100 828 m 204 236 l 204 126 l 278 85 l 347 167 b 275 306 347 221 324 268 m 204 438 l 204 279 l 382 451 l 303 540 "},"l":{"ha":388,"x_min":0,"x_max":0,"o":"m 167 803 b 299 872 208 849 253 871 l 300 868 b 238 732 258 835 238 789 l 238 154 l 328 92 l 361 121 l 381 103 l 258 -15 b 69 92 207 33 144 69 b 107 199 94 117 107 153 l 107 753 b 58 842 107 785 90 814 l 63 847 b 149 803 97 840 126 826 "},"m":{"ha":824,"x_min":0,"x_max":0,"o":"m 119 653 b 204 500 176 621 206 571 l 390 651 b 472 501 436 611 464 561 b 640 646 507 528 563 575 l 726 554 l 782 607 l 800 586 b 743 494 786 567 767 536 l 743 142 b 776 90 743 119 754 103 l 799 111 l 819 89 l 700 -15 b 618 135 646 11 618 61 l 618 483 l 563 538 l 474 468 l 474 122 l 510 76 l 413 -15 l 311 76 l 349 118 l 349 479 b 306 544 349 499 335 521 l 204 463 l 204 121 l 240 75 l 142 -17 l 39 76 l 79 118 l 79 486 b 54 540 79 507 71 525 l 31 521 l 11 543 "},"n":{"ha":557,"x_min":0,"x_max":0,"o":"m 117 653 b 201 501 174 621 203 571 b 369 646 239 531 296 578 l 456 554 l 510 607 l 529 586 b 472 494 515 567 496 536 l 472 142 b 506 90 472 121 483 103 l 528 111 l 549 89 l 429 -15 b 347 135 375 11 347 61 l 347 483 l 292 538 l 201 467 l 201 121 l 238 75 l 139 -17 l 36 76 l 76 118 l 76 486 b 51 540 76 507 68 525 l 28 521 l 8 543 l 117 653 "},"o":{"ha":533,"x_min":0,"x_max":0,"o":"m 68 538 b 256 653 140 556 203 593 b 463 550 322 600 392 565 l 463 88 b 269 -15 385 64 321 31 b 29 93 204 33 125 69 b 68 214 56 110 68 150 l 68 538 m 193 154 l 338 96 l 338 474 l 193 538 "},"p":{"ha":542,"x_min":0,"x_max":0,"o":"m 217 510 b 349 653 260 543 303 590 b 447 575 389 640 421 614 b 483 454 471 538 483 497 l 483 121 b 324 -10 431 89 378 46 b 217 49 297 8 261 28 l 217 -44 b 282 -192 217 -87 239 -136 b 140 -104 233 -190 186 -161 b 36 -162 100 -142 65 -161 b 92 -44 74 -124 92 -85 l 92 79 b 47 86 78 85 63 88 l 21 85 l 21 132 b 92 151 50 142 74 149 l 92 483 b 64 544 92 511 82 532 l 32 517 l 13 539 l 128 653 b 217 510 188 622 217 575 m 217 150 b 358 103 265 139 313 124 l 358 456 b 338 504 358 471 351 488 b 293 538 325 519 310 531 l 217 463 "},"q":{"ha":493,"x_min":0,"x_max":0,"o":"m 43 549 b 229 653 114 567 175 601 b 469 526 307 585 388 543 l 469 521 l 438 474 l 438 -44 b 494 -164 438 -83 457 -124 b 389 -104 463 -162 426 -142 b 249 -192 343 -164 297 -193 b 313 -49 292 -139 313 -92 l 313 133 l 129 -15 b 43 150 72 24 43 79 l 43 549 m 168 160 b 213 92 168 131 183 107 l 313 174 l 313 460 l 168 531 l 168 160 "},"r":{"ha":442,"x_min":0,"x_max":0,"o":"m 124 653 b 204 539 178 626 204 588 l 333 653 l 424 546 l 332 461 l 256 547 l 206 504 l 206 143 l 276 88 l 313 119 l 331 97 l 210 -15 b 39 89 164 32 107 67 b 76 182 64 113 76 144 l 76 482 b 51 539 76 501 68 521 l 28 519 l 7 540 "},"s":{"ha":513,"x_min":0,"x_max":0,"o":"m 40 536 b 200 653 106 564 160 603 b 372 596 263 615 319 597 b 449 644 422 594 447 611 b 413 710 447 661 414 689 b 449 742 414 732 425 743 b 493 693 479 740 494 725 b 428 551 492 657 471 610 b 331 421 428 551 396 508 l 458 342 l 458 83 b 288 -15 393 65 336 32 b 161 26 247 13 206 26 b 29 -7 125 26 81 15 l 7 7 l 168 242 l 40 317 l 40 536 m 121 122 b 203 140 139 128 165 133 b 338 94 250 140 294 125 l 338 279 l 264 322 m 161 378 l 235 338 l 356 513 b 275 503 331 506 304 503 b 161 539 236 504 199 515 "},"t":{"ha":368,"x_min":0,"x_max":0,"o":"m 203 815 l 203 628 l 336 628 l 336 554 l 203 554 l 203 149 l 271 89 l 307 122 l 325 101 l 204 -15 b 36 93 163 32 107 68 b 74 193 61 114 74 147 l 74 553 l 28 553 l 28 579 "},"u":{"ha":551,"x_min":0,"x_max":0,"o":"m 139 653 l 240 565 l 201 525 l 201 161 b 246 92 201 132 217 110 l 347 174 l 347 521 l 311 567 l 408 653 l 511 565 l 472 525 l 472 140 b 506 90 472 122 483 106 l 529 110 l 549 88 l 428 -17 b 347 133 374 13 347 63 l 163 -15 b 100 54 136 0 115 22 b 76 146 85 83 76 114 l 76 521 l 56 543 l 28 519 l 7 542 "},"v":{"ha":533,"x_min":0,"x_max":0,"o":"m 157 810 b 101 721 119 775 101 744 b 147 632 104 704 119 675 b 193 499 175 592 190 547 l 375 654 b 463 507 433 592 463 542 l 463 88 b 268 -15 386 65 321 31 b 29 93 197 39 117 75 b 68 206 56 113 68 150 l 68 521 b 14 657 32 564 14 610 b 146 828 13 721 57 778 m 193 153 l 338 96 l 338 463 b 294 539 338 483 324 508 l 193 457 "},"w":{"ha":792,"x_min":0,"x_max":0,"o":"m 157 810 b 101 721 119 775 101 744 b 147 635 103 706 118 676 b 193 503 175 594 190 551 l 374 653 b 460 504 432 604 461 554 l 635 653 b 722 511 693 596 722 549 l 722 88 b 538 -15 660 69 597 35 b 465 19 506 1 481 13 b 389 38 438 32 413 38 b 264 -15 351 39 310 21 b 28 92 192 36 113 72 b 68 208 54 114 68 153 l 68 528 b 14 657 32 571 14 614 b 146 828 13 721 57 778 m 193 147 b 338 89 239 126 286 107 l 338 463 b 292 544 338 489 322 517 l 193 463 m 463 140 b 607 89 501 121 550 104 l 607 464 b 564 544 607 486 593 513 l 463 463 "},"x":{"ha":560,"x_min":0,"x_max":0,"o":"m 135 653 b 235 554 172 635 206 603 b 300 426 247 533 269 490 l 394 653 l 518 578 l 475 471 l 376 521 l 321 385 b 361 306 336 357 350 331 l 403 218 b 497 85 435 153 465 108 l 529 113 l 549 92 l 436 -15 b 329 110 400 6 364 47 b 254 260 325 115 300 165 l 142 -15 l 15 58 l 58 169 l 164 124 l 233 297 l 167 440 b 68 557 132 506 100 544 l 26 525 l 10 546 l 135 653 "},"y":{"ha":542,"x_min":0,"x_max":0,"o":"m 161 653 b 244 497 219 619 247 568 l 417 647 b 500 428 474 586 501 513 b 404 203 499 338 467 263 b 174 44 361 163 283 110 b 51 -89 92 -3 51 -47 b 149 -158 51 -132 83 -156 b 229 -128 181 -157 207 -146 b 278 -100 251 -110 268 -101 b 300 -124 293 -100 301 -107 b 240 -178 299 -147 279 -165 b 154 -192 213 -187 183 -192 b 60 -171 118 -192 86 -185 b 13 -94 26 -153 11 -128 b 56 7 14 -67 29 -33 b 118 106 97 72 118 104 l 118 479 b 92 542 118 503 110 524 l 53 504 l 31 526 m 243 119 b 382 376 336 186 382 272 b 328 531 383 442 365 493 l 243 460 "},"z":{"ha":406,"x_min":0,"x_max":0,"o":"m 185 653 b 257 586 200 638 225 615 b 338 539 290 557 317 540 l 338 529 l 175 364 b 299 329 226 363 268 351 b 351 215 335 303 353 265 b 215 26 350 136 304 74 b 132 -21 168 1 140 -14 b 82 -94 100 -44 83 -68 b 129 -151 82 -131 97 -150 b 149 -147 133 -150 139 -149 b 169 -144 157 -146 164 -144 b 190 -162 182 -143 189 -150 b 149 -192 189 -181 175 -190 b 56 -96 99 -190 57 -146 b 104 0 61 -56 78 -24 b 176 61 119 14 144 35 b 225 172 203 90 219 126 b 125 267 224 235 190 267 b 24 250 93 268 58 263 l 217 450 l 108 557 l 36 507 l 18 531 "},"{":{"ha":692,"x_min":0,"x_max":0,"o":"m 572 983 b 413 828 457 983 413 940 l 413 663 b 372 500 413 589 399 535 b 226 426 346 465 297 442 b 372 351 297 411 346 386 b 413 190 399 317 413 263 l 413 25 b 572 -129 413 -86 460 -129 l 572 -164 b 385 -128 488 -164 425 -151 b 307 35 333 -96 307 -42 l 307 228 b 260 363 307 290 292 336 b 119 406 232 386 185 400 l 119 446 b 260 489 185 451 232 465 b 307 625 292 515 307 561 l 307 815 b 383 982 307 894 332 950 b 572 1018 424 1007 486 1019 "},"|":{"ha":692,"x_min":0,"x_max":0,"o":"m 396 1053 l 396 -325 l 296 -325 l 296 1053 "},"}":{"ha":692,"x_min":0,"x_max":0,"o":"m 118 1018 b 307 982 204 1019 267 1007 b 383 815 358 950 383 894 l 383 625 b 431 489 383 561 399 515 b 571 446 458 465 506 451 l 571 406 b 431 363 506 400 458 386 b 383 228 399 336 383 290 l 383 35 b 306 -128 383 -42 357 -96 b 118 -164 265 -151 203 -164 l 118 -129 b 278 25 233 -129 278 -86 l 278 190 b 318 351 278 263 292 317 b 464 426 344 386 393 411 b 318 501 393 442 344 467 b 278 663 292 536 278 589 l 278 828 b 118 983 278 943 233 983 l 118 1018 "},"~":{"ha":1383,"x_min":0,"x_max":0,"o":"m 282 718 b 514 885 328 828 406 883 b 714 843 563 885 629 871 b 806 815 760 828 790 819 b 899 801 840 806 872 801 b 1060 893 967 800 1019 831 l 1100 868 b 876 711 1067 769 982 711 b 774 724 842 711 807 715 b 576 782 736 735 671 754 b 483 793 547 789 515 793 b 325 696 421 793 368 761 l 282 718 "},"€":{"ha":831,"x_min":0,"x_max":0,"o":"m 432 560 l 432 513 l 138 513 l 139 461 b 143 421 139 447 140 433 l 432 421 l 432 374 l 157 374 b 289 210 182 303 226 249 b 497 157 351 172 421 154 b 754 197 594 161 681 174 l 671 -8 b 485 -26 586 -21 525 -26 b 190 83 365 -26 267 10 b 64 374 114 157 72 254 l -1 374 l -1 421 l 64 421 b 64 514 63 442 63 474 l -1 513 l -1 560 l 79 560 b 193 750 97 636 135 699 b 278 822 242 793 271 817 l 472 968 b 557 935 485 965 513 954 b 647 913 592 919 621 913 b 713 931 658 913 681 918 b 738 950 744 943 753 950 b 756 939 736 950 743 946 b 658 836 713 893 681 858 b 533 751 608 786 567 758 l 406 801 b 376 803 399 803 389 803 b 310 794 357 803 335 800 b 213 708 261 758 229 729 b 144 560 179 667 157 617 "},"‚":{"ha":344,"x_min":0,"x_max":0,"o":"m 81 64 b 164 140 81 114 108 139 b 244 104 199 140 225 128 b 272 18 263 82 271 53 b 86 -226 274 -74 213 -156 l 69 -207 b 219 -24 168 -142 218 -81 b 192 0 221 -3 213 1 l 153 0 b 81 64 106 0 82 21 "},"ƒ":{"ha":451,"x_min":0,"x_max":0,"o":"m 389 706 l 271 736 l 271 544 l 372 544 l 356 471 l 271 471 l 271 -83 b 136 -192 231 -107 186 -143 l 3 -156 l 26 -54 l 154 -86 l 154 471 l 72 471 l 88 544 l 154 544 l 154 742 b 286 840 208 769 251 803 l 417 807 "},"„":{"ha":574,"x_min":0,"x_max":0,"o":"m 151 201 b 249 103 185 161 217 129 b 74 -115 219 15 161 -57 l 49 -86 b 108 3 89 -49 108 -18 b 47 97 108 29 88 60 l 151 201 m 404 201 b 501 103 439 161 472 128 b 326 -115 472 15 414 -57 l 301 -86 b 361 3 342 -49 361 -18 b 300 97 361 29 340 60 l 404 201 "},"…":{"ha":1381,"x_min":0,"x_max":0,"o":"m 232 201 b 335 88 261 164 294 125 l 219 -15 b 117 93 181 14 146 50 m 692 201 b 794 88 718 165 753 128 l 679 -15 b 576 93 640 14 606 50 l 692 201 m 1140 -15 b 1038 93 1101 14 1067 50 l 1153 201 b 1256 88 1179 165 1214 128 "},"†":{"ha":692,"x_min":0,"x_max":0,"o":"m 281 818 b 365 883 308 831 336 853 l 388 883 l 388 590 l 558 590 l 578 642 l 603 642 l 550 492 l 388 492 l 388 -128 b 281 -190 344 -135 308 -156 l 281 492 l 108 492 l 90 446 l 65 446 l 117 590 l 281 590 l 281 818 "},"‡":{"ha":692,"x_min":0,"x_max":0,"o":"m 281 819 b 365 885 307 832 335 854 l 388 885 l 388 594 l 560 594 l 578 643 l 603 643 l 550 492 l 388 492 l 388 203 l 561 203 l 578 254 l 603 254 l 550 101 l 388 101 l 388 -126 b 281 -189 344 -133 308 -154 l 281 101 l 106 101 l 90 58 l 65 58 l 118 203 l 281 203 l 281 492 l 106 492 l 90 449 l 65 449 l 117 594 l 281 594 l 281 819 "},"ˆ":{"ha":692,"x_min":0,"x_max":0,"o":"m 346 863 b 185 724 300 801 247 756 l 164 744 b 313 956 210 796 258 867 l 379 956 b 528 744 419 882 469 813 l 507 724 b 346 863 442 760 389 806 "},"‰":{"ha":1444,"x_min":0,"x_max":0,"o":"m 224 843 b 428 606 360 792 428 713 b 240 318 428 493 365 397 b 90 408 176 336 126 367 b 32 574 50 454 31 508 b 224 843 33 679 97 769 m 167 756 b 110 632 128 718 108 678 b 163 489 110 578 128 531 b 293 411 197 447 242 421 b 350 561 333 453 351 503 b 167 756 349 667 272 743 m 276 -14 l 200 -14 l 699 843 l 775 843 m 631 279 b 814 68 631 172 708 89 b 871 208 854 107 872 154 b 817 342 869 261 851 306 b 689 406 785 375 742 396 b 631 279 649 368 629 325 m 949 253 b 896 92 949 190 931 138 b 761 -14 867 57 822 21 b 553 221 621 21 551 100 b 746 497 554 331 619 422 b 949 253 881 443 949 363 m 1336 207 b 1282 340 1335 260 1317 304 b 1154 406 1250 375 1207 396 b 1096 278 1114 368 1094 325 b 1279 67 1096 171 1174 88 b 1336 207 1319 106 1338 153 m 1414 251 b 1360 92 1414 190 1396 138 b 1226 -14 1332 57 1288 21 b 1018 219 1086 21 1017 99 b 1211 499 1019 328 1085 421 b 1414 251 1346 442 1413 360 "},"Š":{"ha":1006,"x_min":0,"x_max":0,"o":"m 385 900 b 644 810 465 868 551 839 l 675 867 l 704 849 l 574 613 b 636 615 586 613 621 615 b 856 554 721 614 794 593 b 964 365 926 508 963 444 b 851 126 965 276 928 197 b 619 -21 801 81 724 32 l 451 47 b 169 -33 339 -7 244 -33 b 61 -4 128 -33 92 -24 b 7 86 25 17 7 47 b 71 196 7 133 28 169 b 200 229 106 217 149 228 b 321 219 238 229 278 226 l 356 283 l 306 283 b 139 326 243 283 188 297 b 50 465 81 361 51 408 b 157 597 49 522 85 567 b 236 769 153 649 179 707 b 385 900 257 790 306 835 m 356 776 b 282 751 326 776 301 768 b 249 682 261 733 250 711 b 383 597 249 625 293 597 b 460 601 403 597 428 599 l 533 608 l 579 692 b 356 776 506 747 431 775 m 465 410 b 618 422 525 418 575 422 b 796 301 736 422 796 382 b 629 136 797 249 742 193 l 743 92 b 868 313 828 163 869 236 b 629 494 867 433 786 494 b 504 485 581 494 539 492 m 461 481 b 346 474 440 479 401 476 b 168 572 253 472 194 504 b 133 507 144 547 133 525 b 331 401 135 436 200 401 b 392 404 338 401 358 403 l 421 406 l 461 481 m 358 214 b 579 153 429 199 503 179 b 672 258 639 189 671 224 b 644 292 672 275 663 286 b 594 297 632 296 615 297 b 394 283 546 297 479 293 m 397 63 b 146 122 304 103 221 122 b 88 110 122 122 103 118 b 58 58 68 97 58 81 b 96 8 58 38 71 21 b 163 -4 115 0 138 -4 b 397 63 247 -3 325 19 m 721 1203 b 572 989 674 1149 624 1076 l 506 989 b 357 1203 463 1068 413 1139 l 378 1222 b 539 1083 443 1185 497 1139 b 700 1222 585 1144 639 1190 "},"‹":{"ha":400,"x_min":0,"x_max":0,"o":"m 65 317 b 244 549 140 397 200 475 l 328 500 l 181 317 l 329 136 l 242 86 b 65 317 179 178 121 254 "},"Œ":{"ha":1390,"x_min":0,"x_max":0,"o":"m 1382 843 l 1218 636 l 1344 636 l 1281 496 l 1100 496 l 1100 115 b 1249 150 1156 117 1206 128 b 1372 240 1283 168 1325 197 l 1382 233 b 1054 0 1306 76 1197 -1 b 832 75 969 0 894 25 b 701 271 771 124 728 189 b 540 85 658 196 604 133 b 313 0 467 28 390 0 b 97 110 222 0 151 36 b 25 349 49 176 25 256 b 42 511 25 411 31 465 l 71 629 b 433 915 192 714 313 810 b 625 846 503 910 567 886 b 760 693 682 806 726 756 b 951 842 808 761 872 811 l 954 833 b 836 696 899 785 860 739 b 797 521 810 647 797 589 b 861 257 799 401 819 314 b 889 313 879 272 889 290 l 889 681 l 1124 914 b 1349 842 1189 863 1264 839 m 1010 472 b 876 231 1010 385 965 304 b 1069 119 915 172 979 135 l 1069 797 l 1010 742 l 1010 472 m 1233 704 l 1100 764 l 1100 525 m 222 701 b 136 435 165 628 138 539 b 189 233 136 363 154 296 b 222 353 211 258 222 299 l 222 701 m 324 432 b 208 207 324 358 285 283 b 386 117 260 149 318 118 l 386 778 l 324 778 m 417 613 b 525 561 446 578 482 561 b 639 624 576 561 614 582 b 417 775 594 706 521 757 m 417 118 b 561 194 465 119 514 144 b 653 336 600 235 631 282 b 529 413 624 388 582 413 b 417 354 492 413 454 393 m 417 394 b 533 439 457 424 496 439 b 608 422 563 439 588 433 b 667 371 625 413 644 394 b 683 472 678 410 683 443 b 651 596 685 513 674 553 b 521 536 614 556 569 536 b 417 575 482 536 447 549 l 417 394 "},"‘":{"ha":321,"x_min":0,"x_max":0,"o":"m 249 864 b 189 774 210 829 190 799 b 249 686 189 753 208 724 l 146 586 b 49 682 114 622 82 654 b 224 893 78 767 136 838 l 249 864 "},"’":{"ha":321,"x_min":0,"x_max":0,"o":"m 151 893 b 249 799 183 856 217 825 b 74 586 219 714 161 643 l 49 614 b 108 706 89 649 108 679 b 49 793 110 726 89 756 l 151 893 "},"“":{"ha":574,"x_min":0,"x_max":0,"o":"m 421 585 b 324 681 392 619 358 651 b 499 893 353 767 411 838 l 525 864 b 464 775 485 828 465 799 b 524 685 465 751 485 721 l 421 585 m 167 585 b 69 681 136 619 104 651 b 244 893 99 765 157 836 l 271 864 b 210 775 231 828 211 799 b 269 685 211 751 231 721 "},"”":{"ha":574,"x_min":0,"x_max":0,"o":"m 47 614 b 108 703 88 650 107 679 b 49 793 107 726 88 757 l 151 893 b 249 799 183 856 217 825 b 74 586 219 714 161 643 m 406 893 b 503 799 439 856 471 824 b 326 586 474 714 415 643 l 301 614 b 340 654 321 632 333 646 b 363 703 354 671 361 688 b 301 796 361 725 342 756 "},"•":{"ha":817,"x_min":0,"x_max":0,"o":"m 406 710 b 547 651 461 710 508 690 b 606 510 586 613 606 565 b 547 369 606 454 586 407 b 406 313 508 332 461 313 b 265 369 351 313 304 332 b 208 510 228 408 208 456 b 265 650 208 564 228 611 b 406 710 304 690 351 710 "},"–":{"ha":692,"x_min":0,"x_max":0,"o":"m 0 367 l 690 367 l 690 283 l 0 283 "},"—":{"ha":1383,"x_min":0,"x_max":0,"o":"m 1382 367 l 1382 283 l 0 283 l 0 367 "},"˜":{"ha":692,"x_min":0,"x_max":0,"o":"m 265 901 b 364 883 288 900 321 894 b 463 865 407 872 440 867 b 494 874 478 864 488 867 b 511 904 499 878 504 888 l 540 896 b 501 817 522 853 508 826 b 429 778 481 789 457 776 b 328 797 407 779 374 785 b 226 817 283 810 250 815 b 179 775 208 818 193 804 l 151 783 b 192 864 169 825 182 851 b 265 901 211 890 236 903 "},"™":{"ha":1136,"x_min":0,"x_max":0,"o":"m 528 971 l 656 971 l 749 704 l 846 971 l 965 971 l 965 954 b 918 919 933 953 918 942 l 918 667 b 965 628 918 640 933 628 l 965 608 l 806 608 l 806 626 b 856 664 839 626 856 639 l 856 928 l 740 607 l 725 607 l 610 926 l 610 664 b 660 628 610 639 626 626 l 660 608 l 529 608 l 529 628 b 579 660 563 628 579 639 l 579 919 b 528 953 579 940 563 951 m 469 971 l 476 847 l 458 847 b 372 950 458 915 429 950 l 356 950 l 356 665 b 368 633 356 649 360 638 b 404 628 374 629 386 628 l 404 608 l 235 608 l 235 628 b 271 633 253 628 264 629 b 285 665 281 638 285 649 l 285 950 l 269 950 b 181 847 213 950 182 915 l 163 847 l 168 971 "},"š":{"ha":513,"x_min":0,"x_max":0,"o":"m 40 536 b 200 653 106 564 160 603 b 372 596 263 615 319 597 b 449 644 422 594 447 611 b 413 710 447 661 414 689 b 449 742 414 732 425 743 b 493 693 479 740 494 725 b 428 551 492 657 471 610 b 331 421 428 551 396 508 l 458 342 l 458 83 b 288 -15 393 65 336 32 b 161 26 247 13 206 26 b 29 -7 125 26 81 15 l 7 7 l 168 242 l 40 317 l 40 536 m 121 122 b 203 140 139 128 165 133 b 338 94 250 140 294 125 l 338 279 l 264 322 m 161 378 l 235 338 l 356 513 b 275 503 331 506 304 503 b 161 539 236 504 199 515 m 438 935 b 289 724 389 881 340 810 l 222 724 b 74 935 182 797 132 867 l 94 956 b 256 817 160 918 214 872 b 417 956 301 878 356 924 "},"›":{"ha":400,"x_min":0,"x_max":0,"o":"m 67 133 l 214 318 l 65 497 l 153 549 b 329 318 211 460 269 383 b 150 86 256 236 196 158 "},"œ":{"ha":685,"x_min":0,"x_max":0,"o":"m 256 653 b 375 578 279 635 319 610 l 399 578 b 456 611 418 586 438 597 l 508 653 l 678 465 b 454 282 607 408 533 347 l 454 139 l 558 89 l 642 150 l 663 126 b 474 -15 590 78 528 31 b 372 40 453 -1 418 17 l 343 40 b 269 -15 326 29 301 11 b 29 93 204 33 125 69 b 68 214 56 110 68 150 l 68 540 b 256 653 144 560 207 597 m 564 414 l 453 539 l 453 321 m 193 154 l 338 96 l 338 479 b 193 540 289 494 242 515 "},"Ÿ":{"ha":932,"x_min":0,"x_max":0,"o":"m 82 863 b 188 892 117 881 151 890 b 364 758 276 892 346 843 b 617 863 460 828 543 863 b 807 760 700 863 764 828 b 861 540 844 700 863 628 b 776 253 860 419 831 324 b 508 136 715 175 626 136 l 256 136 b 121 110 201 136 156 128 b 53 0 75 86 51 50 b 175 -117 54 -68 104 -117 b 250 -101 196 -117 221 -111 b 421 -32 299 -78 356 -56 b 528 -17 449 -22 485 -17 b 625 -46 567 -17 599 -26 b 669 -133 654 -67 668 -96 b 610 -193 669 -171 650 -192 b 560 -139 578 -192 561 -174 b 582 -76 561 -122 581 -89 b 557 -58 582 -64 574 -57 b 417 -125 543 -58 496 -81 b 214 -194 332 -172 264 -196 b 76 -142 160 -194 114 -176 b 18 -7 38 -104 18 -60 b 81 122 18 47 39 90 b 222 167 118 151 165 165 l 222 240 b 172 347 222 275 206 311 b 74 418 144 376 111 400 l 74 429 b 115 432 83 429 106 432 b 222 400 156 432 190 421 l 222 456 b 174 551 222 488 206 519 b 78 611 144 578 113 599 l 78 619 b 133 628 96 625 115 628 b 222 608 158 628 188 621 l 222 744 b 82 851 222 815 175 850 l 82 863 m 361 167 l 424 167 l 424 756 l 361 728 m 457 606 b 567 560 492 576 528 561 b 692 610 611 560 653 576 b 540 789 674 729 622 789 b 457 772 510 790 482 785 m 457 393 b 567 432 494 418 532 431 b 696 385 607 432 650 417 b 704 490 701 431 704 467 b 699 579 704 515 703 544 b 565 529 649 546 604 529 b 457 569 529 531 493 543 m 457 167 l 504 167 b 628 226 553 167 594 186 b 688 354 657 261 678 303 b 571 401 651 386 613 401 b 457 360 536 401 497 388 m 388 1194 b 469 1106 406 1175 433 1146 l 381 1021 b 299 1110 360 1042 333 1071 l 388 1194 m 619 1194 b 701 1106 638 1175 665 1146 l 613 1021 b 531 1110 592 1042 565 1071 l 619 1194 "},"¡":{"ha":319,"x_min":0,"x_max":0,"o":"m 42 103 b 131 619 96 271 125 443 l 161 619 b 250 103 164 443 193 271 l 146 -15 m 144 672 b 42 786 113 711 79 749 l 157 893 b 260 782 193 863 228 825 l 144 672 "},"¢":{"ha":640,"x_min":0,"x_max":0,"o":"m 76 667 b 233 782 139 694 192 733 l 233 858 l 289 858 l 289 747 l 388 678 l 324 594 l 289 617 l 289 231 l 311 222 l 365 268 l 383 244 l 289 165 l 289 -28 l 233 -28 l 233 108 b 43 203 186 149 122 179 b 76 310 65 235 76 269 m 238 247 l 238 656 l 188 686 l 188 268 "},"£":{"ha":640,"x_min":0,"x_max":0,"o":"m 529 631 l 299 736 b 256 615 269 693 254 653 b 317 414 257 578 276 511 l 482 414 l 482 383 l 324 383 l 325 353 b 324 342 325 350 325 346 l 324 328 l 482 328 l 482 297 l 321 297 b 261 117 319 253 299 193 b 429 142 326 133 383 142 b 601 111 486 142 544 132 l 556 -19 b 335 39 474 19 400 39 b 88 -11 264 39 182 22 l 63 17 b 213 99 106 49 156 76 b 226 168 222 118 226 142 b 188 297 226 214 214 257 l 75 297 l 75 328 l 174 328 l 156 383 l 75 383 l 75 414 l 149 414 l 142 478 b 217 685 143 546 168 615 b 376 839 260 747 313 799 l 586 744 "},"¤":{"ha":839,"x_min":0,"x_max":0,"o":"m 110 957 l 246 818 b 419 876 296 858 354 878 b 590 818 486 876 543 857 l 729 957 l 783 903 l 644 764 b 703 594 683 721 703 664 b 644 425 703 526 683 471 l 783 288 l 728 232 l 590 369 b 419 313 542 332 485 313 b 246 371 357 311 299 331 l 110 232 l 54 288 l 194 425 b 136 596 156 468 136 525 b 193 764 136 664 156 721 l 54 903 m 213 599 b 274 451 213 542 233 492 b 421 389 314 411 364 390 b 565 449 478 389 526 408 b 625 597 606 489 625 539 b 564 742 625 654 604 703 b 417 801 524 782 474 801 b 274 739 363 800 315 779 b 213 599 233 699 213 653 "},"¥":{"ha":640,"x_min":0,"x_max":0,"o":"m -39 722 b 107 840 -6 801 43 840 b 244 696 171 842 217 793 l 471 839 b 554 604 528 779 556 701 b 396 347 553 507 500 421 l 556 347 l 544 271 l 343 271 l 343 142 l 403 89 l 439 122 l 458 101 l 336 -15 b 183 92 285 39 235 74 b 222 196 210 113 222 147 l 222 271 l 64 271 l 74 347 l 211 347 b 131 643 186 443 160 542 b 40 751 111 715 81 751 b -32 715 17 751 -8 739 l -39 722 m 335 340 b 443 579 406 408 442 489 b 388 750 443 644 425 701 l 254 667 "},"¦":{"ha":692,"x_min":0,"x_max":0,"o":"m 396 963 l 396 453 l 296 453 l 296 963 m 396 271 l 396 -236 l 296 -236 l 296 271 "},"§":{"ha":640,"x_min":0,"x_max":0,"o":"m 74 647 b 144 811 75 710 99 765 b 306 894 189 856 243 883 l 546 842 l 503 728 l 189 810 b 161 749 175 786 165 767 b 156 715 158 736 157 725 b 310 565 151 657 203 607 b 538 504 353 550 428 529 b 556 414 550 476 556 446 b 482 208 554 347 531 279 b 542 61 522 179 543 129 b 475 -107 542 -4 519 -60 b 308 -192 431 -154 375 -182 l 38 -131 l 82 -18 l 426 -107 b 458 1 447 -76 458 -40 b 460 15 460 6 460 11 b 392 118 460 60 438 94 b 71 232 343 144 236 183 b 56 319 61 261 56 290 b 128 518 57 389 81 456 b 74 647 92 556 74 599 m 165 499 b 131 388 143 454 132 417 b 150 336 131 367 138 349 b 250 293 161 325 194 311 l 338 267 b 442 231 365 258 400 246 b 475 349 463 274 474 313 b 456 399 475 368 468 385 b 343 442 444 410 407 424 b 165 499 294 456 235 475 "},"¨":{"ha":692,"x_min":0,"x_max":0,"o":"m 229 928 b 311 839 247 908 275 879 l 222 754 b 140 843 193 783 167 813 l 229 928 m 461 928 b 543 839 479 908 507 879 l 454 754 b 372 843 425 783 399 813 l 461 928 "},"©":{"ha":1136,"x_min":0,"x_max":0,"o":"m 568 878 b 272 751 453 878 354 836 b 149 454 190 668 149 569 b 271 156 149 338 189 238 b 568 32 353 74 453 32 b 863 157 682 32 781 74 b 988 453 946 240 988 339 b 865 753 988 569 947 669 b 568 878 783 836 685 878 m 563 935 b 906 797 699 933 813 888 b 1047 456 1001 704 1049 590 b 907 118 1046 324 1000 211 b 574 -21 815 25 704 -21 b 231 115 440 -21 326 25 b 88 453 135 207 88 319 b 226 792 88 583 133 696 b 563 935 319 888 432 936 m 721 694 b 758 739 742 696 754 710 l 782 739 l 782 525 l 756 525 b 564 711 726 650 663 713 b 401 461 456 710 401 626 b 579 201 401 289 461 203 b 768 318 653 200 715 239 l 793 301 b 561 161 743 208 665 161 b 363 244 482 161 417 189 b 283 446 310 301 283 368 b 361 656 283 528 310 599 b 564 742 414 713 482 742 b 657 721 600 742 631 735 b 721 694 686 706 708 696 "},"ª":{"ha":389,"x_min":0,"x_max":0,"o":"m 69 874 b 183 914 122 874 160 888 l 322 867 l 350 886 l 356 879 b 321 793 332 847 321 818 l 321 568 b 346 521 321 544 329 528 l 364 536 l 378 521 l 289 444 b 228 554 249 465 228 501 l 100 444 l 90 444 b 21 574 44 481 22 524 b 115 751 19 631 51 690 l 69 874 m 133 753 l 228 701 l 228 810 l 92 860 m 132 735 b 103 647 113 708 103 679 b 158 521 103 593 121 550 l 228 581 l 228 688 "},"«":{"ha":633,"x_min":0,"x_max":0,"o":"m 65 317 b 244 549 140 397 200 475 l 328 500 l 181 317 l 329 136 l 242 86 b 65 317 179 178 121 254 m 304 317 b 483 549 378 399 438 475 l 567 500 l 419 317 l 568 136 l 481 86 b 304 317 422 174 364 251 "},"¬":{"ha":1153,"x_min":0,"x_max":0,"o":"m 889 239 l 889 485 l 172 485 l 172 578 l 981 578 l 981 239 "},"−":{"ha":1153,"x_min":0,"x_max":0,"o":"m 981 457 l 981 364 l 172 364 l 172 457 "},"®":{"ha":1136,"x_min":0,"x_max":0,"o":"m 568 878 b 272 751 453 878 354 836 b 149 454 190 668 149 569 b 271 156 149 338 189 238 b 568 32 353 74 453 32 b 863 157 682 32 781 74 b 988 453 946 240 988 339 b 865 753 988 569 947 669 b 568 878 783 836 685 878 m 563 935 b 906 797 699 933 813 888 b 1047 456 1001 704 1049 590 b 907 118 1046 324 1000 211 b 574 -21 815 25 704 -21 b 231 115 440 -21 326 25 b 88 453 135 207 88 319 b 226 792 88 583 133 696 b 563 935 319 888 432 936 m 592 733 b 724 707 642 733 686 725 b 796 604 772 683 796 649 b 601 463 796 531 731 483 b 733 367 668 439 713 407 b 756 274 743 351 750 319 b 797 222 760 244 774 226 b 839 310 825 222 839 251 l 868 310 b 763 179 868 222 833 178 b 651 285 689 189 651 224 b 656 335 651 296 656 324 b 528 456 656 397 613 438 l 497 456 l 497 300 b 511 240 497 271 501 250 b 576 222 526 228 549 222 l 576 193 l 315 193 l 315 222 b 385 242 347 222 371 229 b 397 292 393 250 397 267 l 397 635 b 383 686 397 660 393 676 b 315 704 369 699 347 704 l 315 733 m 565 707 b 497 653 519 708 497 690 l 497 483 b 544 482 507 483 533 482 b 689 600 640 483 689 524 b 565 707 689 671 647 707 "},"¯":{"ha":692,"x_min":0,"x_max":0,"o":"m 690 1051 l 690 956 l 0 956 l 0 1051 "},"°":{"ha":454,"x_min":0,"x_max":0,"o":"m 228 915 b 96 782 154 915 96 858 b 228 654 96 710 156 654 b 358 782 300 654 358 711 b 228 915 358 858 301 915 m 228 979 b 364 924 282 979 326 961 b 421 788 401 886 421 842 b 365 647 421 733 403 686 b 228 590 328 610 282 590 b 90 646 174 590 128 608 b 33 782 53 683 33 728 b 90 919 33 835 53 881 b 228 979 128 960 174 979 "},"±":{"ha":1153,"x_min":0,"x_max":0,"o":"m 529 572 l 529 801 l 624 801 l 624 572 l 981 572 l 981 479 l 624 479 l 624 250 l 529 250 l 529 479 l 172 479 l 172 572 m 981 18 l 172 18 l 172 111 l 981 111 "},"²":{"ha":422,"x_min":0,"x_max":0,"o":"m 367 724 b 257 528 365 632 329 567 l 157 475 b 57 389 121 456 88 426 b 233 425 115 413 174 424 b 372 394 290 425 338 415 l 307 321 b 160 353 257 342 208 353 b 1 321 106 353 53 342 b 75 449 8 367 32 408 b 207 560 108 479 153 517 b 274 688 249 592 271 635 b 225 778 275 717 258 747 l 72 665 l 15 718 l 174 835 "},"³":{"ha":422,"x_min":0,"x_max":0,"o":"m 165 835 l 347 750 b 350 724 347 743 350 729 b 240 596 350 669 314 628 b 368 468 326 574 369 531 b 286 357 368 422 340 386 b 143 321 243 333 196 322 l 0 435 l 61 489 l 233 354 b 278 460 263 383 278 418 b 235 554 279 500 264 531 b 132 585 208 574 175 583 b 106 583 126 585 111 583 l 106 604 b 213 636 150 606 186 615 b 257 735 243 660 258 692 b 225 782 257 767 246 782 b 88 697 217 783 171 754 l 38 747 "},"´":{"ha":692,"x_min":0,"x_max":0,"o":"m 538 924 b 297 724 478 844 399 778 l 243 747 b 440 958 315 804 381 875 l 538 924 "},"µ":{"ha":790,"x_min":0,"x_max":0,"o":"m 238 596 b 189 376 226 551 210 478 b 158 185 168 278 157 214 b 267 86 158 118 194 85 b 376 125 315 86 351 99 b 425 229 396 146 413 181 b 456 363 433 263 443 307 l 504 596 l 618 596 b 564 346 607 550 589 467 b 529 151 540 233 529 168 b 599 83 529 106 553 83 b 682 124 639 88 667 100 b 707 188 690 135 699 156 b 738 232 714 213 724 228 b 751 210 747 232 751 225 b 706 61 753 154 738 104 b 572 -12 671 18 626 -7 b 460 135 497 -11 460 38 b 264 -12 419 36 354 -12 b 113 131 176 -12 119 42 b 76 -43 96 67 83 8 l 58 -172 b 42 -240 54 -204 49 -226 b -6 -281 31 -267 15 -281 b -62 -221 -43 -282 -61 -261 b -15 -14 -64 -197 -47 -129 b 126 596 31 149 78 353 "},"¶":{"ha":692,"x_min":0,"x_max":0,"o":"m 646 994 l 646 938 l 564 938 l 564 0 l 492 0 l 492 938 l 371 938 l 371 0 l 297 0 l 297 526 b 119 590 226 528 168 549 b 44 760 71 633 46 690 b 117 929 44 828 68 885 b 292 994 165 972 224 994 "},"·":{"ha":697,"x_min":0,"x_max":0,"o":"m 347 374 b 261 460 303 374 261 415 b 347 546 261 503 303 546 b 433 460 392 546 433 503 b 347 374 433 415 392 374 "},"¸":{"ha":692,"x_min":0,"x_max":0,"o":"m 332 -83 b 507 -199 450 -85 508 -124 b 426 -321 506 -243 479 -283 l 203 -282 l 231 -214 l 399 -247 b 428 -193 418 -233 428 -215 b 286 -126 429 -149 382 -126 l 294 -87 l 294 22 l 332 22 "},"¹":{"ha":279,"x_min":0,"x_max":0,"o":"m 21 750 l 8 761 l 110 835 b 176 751 154 808 176 781 l 176 417 l 211 388 l 244 415 l 258 406 l 161 322 l 68 388 l 92 413 l 92 722 b 56 776 92 740 79 758 "},"º":{"ha":400,"x_min":0,"x_max":0,"o":"m 51 833 b 192 914 106 846 153 872 b 347 840 247 874 299 849 l 347 521 b 203 444 293 507 244 482 b 24 524 147 483 88 510 b 51 604 42 539 51 565 l 51 833 m 144 568 l 254 525 l 254 790 b 144 835 211 803 174 818 "},"»":{"ha":633,"x_min":0,"x_max":0,"o":"m 567 318 b 388 86 492 233 432 157 l 304 133 l 451 318 l 303 497 l 390 549 b 567 318 450 458 510 381 m 328 318 b 149 86 254 236 194 158 l 65 133 l 213 318 l 64 497 l 151 549 b 328 318 210 460 268 383 "},"¼":{"ha":900,"x_min":0,"x_max":0,"o":"m 104 838 b 168 756 147 814 168 786 l 168 444 l 201 421 l 233 446 l 246 435 l 153 356 l 63 422 b 86 456 78 432 86 443 l 86 726 b 51 781 86 751 75 769 l 19 756 l 8 768 m 726 839 l 96 -14 l 36 -14 l 660 839 m 722 469 b 786 393 765 450 786 425 l 786 203 l 861 203 l 878 147 l 786 147 l 786 74 l 819 50 l 843 68 l 854 58 l 772 -8 l 679 44 b 710 89 700 63 710 78 l 710 147 l 536 147 l 514 211 m 538 211 l 540 203 l 708 203 l 708 371 b 690 397 708 381 703 390 "},"½":{"ha":900,"x_min":0,"x_max":0,"o":"m 104 838 b 168 756 147 814 168 786 l 168 444 l 201 421 l 233 446 l 246 435 l 153 356 l 63 422 b 86 456 78 432 86 443 l 86 726 b 51 781 86 751 75 769 l 19 756 l 8 768 m 663 467 l 847 367 l 847 338 b 738 185 847 274 811 222 b 639 129 692 161 660 143 b 554 54 604 106 575 81 b 722 86 613 75 668 85 b 853 58 772 86 815 76 l 790 -7 b 647 21 740 11 693 21 b 499 -7 601 19 553 11 b 561 99 504 33 525 68 b 683 201 589 121 629 156 b 758 329 732 243 757 286 b 711 411 760 363 743 390 l 567 313 l 513 358 m 726 839 l 96 -14 l 36 -14 l 660 839 "},"¾":{"ha":1036,"x_min":0,"x_max":0,"o":"m 158 835 l 331 754 l 333 728 b 229 610 332 676 297 638 b 351 492 313 586 353 546 b 271 389 350 449 322 414 b 136 354 232 369 188 358 l 0 461 l 58 511 l 222 388 b 265 483 250 408 264 440 b 228 569 265 518 253 547 b 136 600 203 590 172 600 l 100 600 l 100 617 b 203 647 143 618 176 628 b 246 742 232 668 246 700 b 214 783 244 768 235 782 b 176 767 207 785 194 779 l 83 706 l 36 753 m 863 839 l 232 -14 l 172 -14 l 796 839 m 858 469 b 922 393 901 450 922 425 l 922 203 l 997 203 l 1014 147 l 922 147 l 922 74 l 956 50 l 979 68 l 990 58 l 908 -8 l 815 44 b 846 89 836 63 846 76 l 846 147 l 672 147 l 650 211 m 674 211 l 676 203 l 844 203 l 844 371 b 826 397 844 381 839 390 "},"¿":{"ha":481,"x_min":0,"x_max":0,"o":"m 176 210 b 274 106 176 140 208 106 b 401 143 299 104 342 117 l 324 -8 b 290 -12 319 -8 308 -10 b 257 -15 276 -14 265 -15 b 108 31 197 -14 149 1 b 42 168 65 65 43 111 b 124 365 40 206 68 272 b 221 624 182 464 214 550 l 254 624 l 257 572 b 243 464 258 543 254 507 b 189 282 242 457 224 396 b 176 210 181 256 176 231 m 238 672 b 136 785 203 718 168 756 l 250 893 b 353 781 296 854 329 817 "},"À":{"ha":832,"x_min":0,"x_max":0,"o":"m 404 894 b 658 800 483 896 568 864 b 815 899 704 856 756 889 l 818 896 b 736 800 775 856 749 824 b 714 678 721 769 713 729 l 724 199 b 760 97 724 158 736 124 l 807 132 l 826 106 l 668 -24 b 631 4 660 -17 647 -8 b 571 128 594 40 575 82 l 368 -24 b 121 99 217 61 135 101 b 82 63 94 97 82 86 b 96 3 82 50 96 18 b 63 -21 97 -11 86 -19 b 28 15 39 -19 28 -8 b 100 168 25 39 49 89 b 201 311 110 183 144 231 b 51 575 101 399 51 486 b 160 806 51 668 88 744 b 404 894 228 863 308 893 m 497 747 b 353 782 451 771 403 782 b 176 715 285 781 225 758 b 97 546 125 669 99 614 b 217 339 96 467 136 397 l 399 603 b 340 635 386 624 367 635 b 233 567 293 635 257 613 b 388 713 235 657 297 711 b 464 697 414 713 439 707 l 497 747 m 293 381 l 567 381 l 561 682 l 536 718 l 528 718 m 178 211 l 458 86 l 571 175 l 569 285 l 231 285 m 378 1225 b 576 1013 438 1142 503 1071 l 521 989 b 282 1189 421 1043 342 1110 l 378 1225 "},"Á":{"ha":832,"x_min":0,"x_max":0,"o":"m 404 894 b 658 800 483 896 568 864 b 815 899 704 856 756 889 l 818 896 b 736 800 775 856 749 824 b 714 678 721 769 713 729 l 724 199 b 760 97 724 158 736 124 l 807 132 l 826 106 l 668 -24 b 631 4 660 -17 647 -8 b 571 128 594 40 575 82 l 368 -24 b 121 99 217 61 135 101 b 82 63 94 97 82 86 b 96 3 82 50 96 18 b 63 -21 97 -11 86 -19 b 28 15 39 -19 28 -8 b 100 168 25 39 49 89 b 201 311 110 183 144 231 b 51 575 101 399 51 486 b 160 806 51 668 88 744 b 404 894 228 863 308 893 m 497 747 b 353 782 451 771 403 782 b 176 715 285 781 225 758 b 97 546 125 669 99 614 b 217 339 96 467 136 397 l 399 603 b 340 635 386 624 367 635 b 233 567 293 635 257 613 b 388 713 235 657 297 711 b 464 697 414 713 439 707 l 497 747 m 293 381 l 567 381 l 561 682 l 536 718 l 528 718 m 178 211 l 458 86 l 571 175 l 569 285 l 231 285 m 638 1189 b 399 989 579 1110 500 1043 l 344 1013 b 542 1225 417 1071 482 1142 "},"Â":{"ha":832,"x_min":0,"x_max":0,"o":"m 404 894 b 658 800 483 896 568 864 b 815 899 704 856 756 889 l 818 896 b 736 800 775 856 749 824 b 714 678 721 769 713 729 l 724 199 b 760 97 724 158 736 124 l 807 132 l 826 106 l 668 -24 b 631 4 660 -17 647 -8 b 571 128 594 40 575 82 l 368 -24 b 121 99 217 61 135 101 b 82 63 94 97 82 86 b 96 3 82 50 96 18 b 63 -21 97 -11 86 -19 b 28 15 39 -19 28 -8 b 100 168 25 39 49 89 b 201 311 110 183 144 231 b 51 575 101 399 51 486 b 160 806 51 668 88 744 b 404 894 228 863 308 893 m 497 747 b 353 782 451 771 403 782 b 176 715 285 781 225 758 b 97 546 125 669 99 614 b 217 339 96 467 136 397 l 399 603 b 340 635 386 624 367 635 b 233 567 293 635 257 613 b 388 713 235 657 297 711 b 464 697 414 713 439 707 l 497 747 m 567 381 l 561 682 l 536 718 l 528 718 l 293 381 m 178 211 l 458 86 l 571 175 l 569 285 l 231 285 m 264 1011 b 413 1222 311 1064 361 1135 l 479 1222 b 629 1011 522 1147 572 1076 l 608 989 b 446 1129 542 1026 488 1074 b 286 989 400 1068 346 1021 "},"Ã":{"ha":832,"x_min":0,"x_max":0,"o":"m 404 894 b 658 800 483 896 568 864 b 815 899 704 856 756 889 l 818 896 b 736 800 775 856 749 824 b 714 678 721 769 713 729 l 724 199 b 760 97 724 158 736 124 l 807 132 l 826 106 l 668 -24 b 631 4 660 -17 647 -8 b 571 128 594 40 575 82 l 368 -24 b 121 99 217 61 135 101 b 82 63 94 97 82 86 b 96 3 82 50 96 18 b 63 -21 97 -11 86 -19 b 28 15 39 -19 28 -8 b 100 168 25 39 49 89 b 201 311 110 183 144 231 b 51 575 101 399 51 486 b 160 806 51 668 88 744 b 404 894 228 863 308 893 m 497 747 b 353 782 451 771 403 782 b 176 715 285 781 225 758 b 97 546 125 669 99 614 b 217 339 96 467 136 397 l 399 603 b 340 635 386 624 367 635 b 233 567 293 635 257 613 b 388 713 235 657 297 711 b 464 697 414 713 439 707 l 497 747 m 293 381 l 567 381 l 561 682 l 536 718 l 528 718 m 178 211 l 458 86 l 571 175 l 569 285 l 231 285 m 367 1168 b 464 1149 389 1167 421 1161 b 563 1131 507 1138 540 1132 b 594 1140 578 1131 588 1133 b 611 1172 599 1144 604 1156 l 640 1161 b 601 1083 621 1118 608 1093 b 529 1043 582 1056 558 1042 b 429 1064 507 1044 474 1051 b 326 1083 385 1076 350 1082 b 281 1042 308 1085 293 1071 l 253 1050 b 292 1131 268 1090 282 1117 b 367 1168 313 1157 338 1169 "},"Ä":{"ha":832,"x_min":0,"x_max":0,"o":"m 404 894 b 658 800 483 896 568 864 b 815 899 704 856 756 889 l 818 896 b 736 800 775 856 749 824 b 714 678 721 769 713 729 l 724 199 b 760 97 724 158 736 124 l 807 132 l 826 106 l 668 -24 b 631 4 660 -17 647 -8 b 571 128 594 40 575 82 l 368 -24 b 121 99 217 61 135 101 b 82 63 94 97 82 86 b 96 3 82 50 96 18 b 63 -21 97 -11 86 -19 b 28 15 39 -19 28 -8 b 100 168 25 39 49 89 b 201 311 110 183 144 231 b 51 575 101 399 51 486 b 160 806 51 668 88 744 b 404 894 228 863 308 893 m 497 747 b 353 782 451 771 403 782 b 176 715 285 781 225 758 b 97 546 125 669 99 614 b 217 339 96 467 136 397 l 399 603 b 340 635 386 624 367 635 b 233 567 293 635 257 613 b 388 713 235 657 297 711 b 464 697 414 713 439 707 l 497 747 m 293 381 l 567 381 l 561 682 l 536 718 l 528 718 m 178 211 l 458 86 l 571 175 l 569 285 l 231 285 m 329 1194 b 411 1106 347 1175 375 1146 l 322 1021 b 240 1110 303 1042 275 1071 l 329 1194 m 561 1194 b 643 1106 579 1175 607 1146 l 554 1021 b 472 1110 535 1042 507 1071 l 561 1194 "},"Å":{"ha":832,"x_min":0,"x_max":0,"o":"m 404 892 b 658 797 483 893 568 861 b 815 897 704 853 756 886 l 818 893 b 736 797 775 853 749 821 b 714 675 721 768 713 726 l 724 196 b 760 94 724 154 736 121 l 807 128 l 826 103 l 668 -26 b 631 1 660 -19 647 -11 b 571 125 594 39 575 79 l 368 -26 b 121 96 217 58 135 99 b 82 60 94 94 82 83 b 96 0 82 47 96 15 b 63 -24 97 -14 86 -22 b 28 11 39 -22 28 -11 b 100 165 25 38 49 89 b 201 308 100 165 133 213 b 51 572 101 396 51 483 b 160 803 51 665 88 742 b 404 892 228 860 308 890 m 497 744 b 353 779 451 768 403 779 b 176 713 285 778 225 756 b 97 543 125 667 99 611 b 217 336 96 464 136 394 l 399 600 b 340 632 386 621 367 632 b 233 563 293 632 257 608 b 388 710 235 653 297 708 b 464 694 414 710 439 704 l 497 744 m 293 378 l 567 378 l 561 678 l 536 715 l 528 715 m 178 208 l 458 83 l 571 174 l 569 282 l 231 282 m 497 1276 b 615 1228 543 1276 583 1260 b 665 1110 649 1196 665 1156 b 615 992 665 1064 649 1025 b 497 943 582 960 543 943 b 379 992 453 943 414 960 b 329 1110 346 1025 329 1064 b 379 1226 329 1156 346 1194 b 497 1276 414 1260 453 1276 m 497 1213 b 397 1110 443 1213 397 1165 b 497 1008 397 1056 442 1010 b 600 1110 554 1010 600 1056 b 497 1213 600 1165 553 1213 "},"Æ":{"ha":1251,"x_min":0,"x_max":0,"o":"m 978 893 b 1099 833 1015 864 1056 843 b 1235 822 1131 826 1175 822 l 1072 617 l 1197 617 l 1132 478 l 950 478 l 950 94 b 1231 221 1049 94 1143 136 l 1239 214 b 901 -24 1171 56 1058 -24 b 593 161 772 -24 669 38 l 360 -22 l 233 47 b 111 103 168 83 128 101 b 72 63 86 101 74 89 b 88 8 76 51 82 33 b 56 -21 88 -10 76 -19 b 18 18 32 -19 19 -7 b 86 165 18 44 40 94 b 185 306 90 171 122 218 b 51 588 96 401 51 496 b 142 807 51 675 82 749 b 363 896 201 865 275 894 b 608 799 438 896 519 864 b 803 897 663 864 728 896 l 806 890 b 678 760 744 858 701 814 b 649 579 658 717 649 656 b 660 410 649 531 653 475 b 715 236 668 339 686 282 b 742 293 733 254 742 272 l 742 663 m 863 717 l 863 449 b 839 335 863 403 854 364 b 728 207 821 300 783 258 b 919 99 760 153 824 117 l 919 778 m 950 507 l 1088 686 l 950 747 m 478 735 b 324 789 426 772 375 790 b 165 722 263 789 210 767 b 99 563 122 678 100 625 b 201 331 97 481 132 404 l 389 608 b 328 639 381 629 360 639 b 224 572 285 640 250 618 b 372 719 228 657 288 718 b 456 706 403 719 431 715 l 478 735 m 286 385 l 518 385 l 514 486 b 522 581 513 507 515 538 b 538 665 526 615 532 643 l 506 706 m 169 214 l 449 88 l 576 192 b 539 289 557 219 544 251 l 221 289 "},"Ç":{"ha":817,"x_min":0,"x_max":0,"o":"m 146 489 b 224 243 146 388 172 306 b 240 296 235 261 240 279 l 240 665 l 508 893 b 782 814 592 842 683 815 l 660 681 b 469 751 597 707 535 731 l 469 106 b 528 101 482 106 515 101 b 801 228 624 100 715 143 l 813 221 b 453 -22 731 58 611 -22 l 422 -22 l 422 -83 b 597 -200 540 -85 599 -124 b 515 -321 597 -246 569 -286 l 293 -282 l 319 -214 l 490 -247 b 518 -197 508 -231 518 -214 b 465 -136 519 -168 501 -147 b 378 -126 444 -129 415 -125 l 385 -86 l 385 -18 b 125 111 278 -11 192 32 b 28 388 61 188 29 279 b 103 642 26 478 51 563 b 307 807 154 724 222 779 l 311 803 b 146 489 201 717 146 613 m 381 724 l 381 456 b 342 321 381 404 368 360 b 243 219 324 294 292 261 b 439 113 297 163 363 126 l 439 775 "},"È":{"ha":817,"x_min":0,"x_max":0,"o":"m 504 893 b 646 833 554 863 601 843 b 801 822 683 826 735 822 l 613 617 l 760 617 l 690 474 l 472 475 l 472 107 l 529 101 b 803 228 622 103 713 144 l 811 221 b 440 -22 729 58 606 -22 b 144 90 319 -22 221 15 b 28 386 68 167 29 265 b 103 642 26 478 51 563 b 307 808 154 721 222 776 l 311 803 b 142 486 197 719 140 614 b 224 243 143 390 169 310 b 240 297 235 261 240 279 l 240 665 l 504 893 m 381 457 b 342 322 381 407 368 363 b 244 221 322 293 290 260 b 440 111 293 167 358 129 l 440 775 l 381 725 m 471 513 l 631 686 l 471 747 m 379 1225 b 576 1013 439 1142 504 1071 l 522 989 b 282 1189 421 1043 342 1110 l 379 1225 "},"É":{"ha":817,"x_min":0,"x_max":0,"o":"m 504 893 b 646 833 554 863 601 843 b 801 822 683 826 735 822 l 613 617 l 760 617 l 690 474 l 472 475 l 472 107 l 529 101 b 803 228 622 103 713 144 l 811 221 b 440 -22 729 58 606 -22 b 144 90 319 -22 221 15 b 28 386 68 167 29 265 b 103 642 26 478 51 563 b 307 808 154 721 222 776 l 311 803 b 142 486 197 719 140 614 b 224 243 143 390 169 310 b 240 297 235 261 240 279 l 240 665 l 504 893 m 381 457 b 342 322 381 407 368 363 b 244 221 322 293 290 260 b 440 111 293 167 358 129 l 440 775 l 381 725 m 471 513 l 631 686 l 471 747 m 639 1189 b 399 989 579 1110 500 1043 l 344 1013 b 542 1225 417 1071 482 1142 "},"Ê":{"ha":817,"x_min":0,"x_max":0,"o":"m 504 893 b 646 833 554 863 601 843 b 801 822 683 826 735 822 l 613 617 l 760 617 l 690 474 l 472 475 l 472 107 l 529 101 b 803 228 622 103 713 144 l 811 221 b 440 -22 729 58 606 -22 b 144 90 319 -22 221 15 b 28 386 68 167 29 265 b 103 642 26 478 51 563 b 307 808 154 721 222 776 l 311 803 b 142 486 197 719 140 614 b 224 243 143 390 169 310 b 240 297 235 261 240 279 l 240 665 l 504 893 m 381 457 b 342 322 381 407 368 363 b 244 221 322 293 290 260 b 440 111 293 167 358 129 l 440 775 l 381 725 m 471 513 l 631 686 l 471 747 m 265 1011 b 414 1222 311 1064 361 1135 l 481 1222 b 629 1011 524 1146 572 1075 l 608 989 b 447 1129 543 1026 489 1074 b 286 989 401 1068 347 1021 "},"Ë":{"ha":817,"x_min":0,"x_max":0,"o":"m 504 893 b 646 833 554 863 601 843 b 801 822 683 826 735 822 l 613 617 l 760 617 l 690 474 l 472 475 l 472 107 l 529 101 b 803 228 622 103 713 144 l 811 221 b 440 -22 729 58 606 -22 b 144 90 319 -22 221 15 b 28 386 68 167 29 265 b 103 642 26 478 51 563 b 307 808 154 721 222 776 l 311 803 b 142 486 197 719 140 614 b 224 243 143 390 169 310 b 240 297 235 261 240 279 l 240 665 l 504 893 m 381 457 b 342 322 381 407 368 363 b 244 221 322 293 290 260 b 440 111 293 167 358 129 l 440 775 l 381 725 l 381 457 m 471 513 l 631 686 l 471 747 m 331 1194 b 413 1106 349 1175 376 1146 l 324 1021 b 242 1110 303 1042 276 1071 m 563 1194 b 644 1106 581 1175 608 1146 l 556 1021 b 474 1110 535 1042 508 1071 "},"Ì":{"ha":660,"x_min":0,"x_max":0,"o":"m 210 542 b 332 822 211 647 251 740 b 211 792 292 801 251 792 b 97 808 186 797 149 803 b 19 746 67 808 40 788 l 7 749 b 63 850 17 790 36 824 b 168 894 92 879 128 894 b 247 886 186 894 213 892 b 324 876 282 881 307 878 b 439 897 356 875 394 882 l 444 889 b 332 631 368 829 331 743 b 347 447 332 589 338 528 b 364 265 357 367 363 306 b 217 128 365 175 317 129 b 371 33 275 67 326 35 b 436 64 401 32 424 43 b 453 138 449 81 454 106 b 429 374 451 186 444 265 b 404 626 414 490 406 575 b 447 810 403 703 418 764 b 610 893 482 865 536 893 l 610 879 b 524 776 550 865 522 831 b 550 522 525 692 535 607 b 576 278 568 428 576 346 b 522 74 576 197 558 129 b 344 -21 479 8 421 -22 b 204 11 307 -19 261 -10 b 68 46 146 32 100 44 b -28 -24 31 47 -1 25 l -36 -22 b 6 101 -35 28 -21 69 b 125 156 36 138 76 156 b 163 153 135 156 156 153 b 239 185 200 151 226 163 b 253 271 249 201 253 231 b 139 444 253 389 215 446 b 36 422 107 444 72 438 b 182 542 47 489 114 542 l 210 542 m 297 1225 b 494 1013 357 1142 422 1071 l 440 989 b 200 1189 339 1043 260 1110 l 297 1225 "},"Í":{"ha":660,"x_min":0,"x_max":0,"o":"m 210 542 b 332 822 211 647 251 740 b 211 792 292 801 251 792 b 97 808 186 797 149 803 b 19 746 67 808 40 788 l 7 749 b 63 850 17 790 36 824 b 168 894 92 879 128 894 b 247 886 186 894 213 892 b 324 876 282 881 307 878 b 439 897 356 875 394 882 l 444 889 b 332 631 368 829 331 743 b 347 447 332 589 338 528 b 364 265 357 367 363 306 b 217 128 365 175 317 129 b 371 33 275 67 326 35 b 436 64 401 32 424 43 b 453 138 449 81 454 106 b 429 374 451 186 444 265 b 404 626 414 490 406 575 b 447 810 403 703 418 764 b 610 893 482 865 536 893 l 610 879 b 524 776 550 865 522 831 b 550 522 525 692 535 607 b 576 278 568 428 576 346 b 522 74 576 197 558 129 b 344 -21 479 8 421 -22 b 204 11 307 -19 261 -10 b 68 46 146 32 100 44 b -28 -24 31 47 -1 25 l -36 -22 b 6 101 -35 28 -21 69 b 125 156 36 138 76 156 b 163 153 135 156 156 153 b 239 185 200 151 226 163 b 253 271 249 201 253 231 b 139 444 253 389 215 446 b 36 422 107 444 72 438 b 182 542 47 489 114 542 m 558 1189 b 318 989 499 1110 419 1043 l 264 1013 b 461 1225 336 1071 401 1142 "},"Î":{"ha":660,"x_min":0,"x_max":0,"o":"m 367 1129 b 206 989 319 1067 265 1021 l 185 1011 b 333 1222 229 1061 279 1132 l 400 1222 b 549 1011 443 1146 492 1075 l 528 989 b 367 1129 463 1026 410 1072 m 210 542 b 332 822 211 647 251 740 b 211 792 292 801 251 792 b 97 808 186 797 149 803 b 19 746 67 808 40 788 l 7 749 b 63 850 17 790 36 824 b 168 894 92 879 128 894 b 247 886 186 894 213 892 b 324 876 282 881 307 878 b 439 897 356 875 394 882 l 444 889 b 332 631 368 829 331 743 b 347 447 332 589 338 528 b 364 265 357 367 363 306 b 217 128 365 175 317 129 b 371 33 275 67 326 35 b 436 64 401 32 424 43 b 453 138 449 81 454 106 b 429 374 451 186 444 265 b 404 626 414 490 406 575 b 447 810 403 703 418 764 b 610 893 482 865 536 893 l 610 879 b 524 776 550 865 522 831 b 550 522 525 692 535 607 b 576 278 568 428 576 346 b 522 74 576 197 558 129 b 344 -21 479 8 421 -22 b 204 11 307 -19 261 -10 b 68 46 146 32 100 44 b -28 -24 31 47 -1 25 l -36 -22 b 6 101 -35 28 -21 69 b 125 156 36 138 76 156 b 163 153 135 156 156 153 b 239 185 200 151 226 163 b 253 271 249 201 253 231 b 139 444 253 389 215 446 b 36 422 107 444 72 438 b 182 542 47 489 114 542 "},"Ï":{"ha":660,"x_min":0,"x_max":0,"o":"m 210 542 b 332 822 211 647 251 740 b 211 792 292 801 251 792 b 97 808 186 797 149 803 b 19 746 67 808 40 788 l 7 749 b 63 850 17 790 36 824 b 168 894 92 879 128 894 b 247 886 186 894 213 892 b 324 876 282 881 307 878 b 439 897 356 875 394 882 l 444 889 b 332 631 368 829 331 743 b 347 447 332 589 338 528 b 364 265 357 367 363 306 b 217 128 365 175 317 129 b 371 33 275 67 326 35 b 436 64 401 32 424 43 b 453 138 449 81 454 106 b 429 374 451 186 444 265 b 404 626 414 490 406 575 b 447 810 403 703 418 764 b 610 893 482 865 536 893 l 610 879 b 524 776 550 865 522 831 b 550 522 525 692 535 607 b 576 278 568 428 576 346 b 522 74 576 197 558 129 b 344 -21 479 8 421 -22 b 204 11 307 -19 261 -10 b 68 46 146 32 100 44 b -28 -24 31 47 -1 25 l -36 -22 b 6 101 -35 28 -21 69 b 125 156 36 138 76 156 b 163 153 135 156 156 153 b 239 185 200 151 226 163 b 253 271 249 201 253 231 b 139 444 253 389 215 446 b 36 422 107 444 72 438 b 182 542 47 489 114 542 l 210 542 m 250 1194 b 332 1106 268 1175 296 1146 l 243 1021 b 161 1110 219 1044 193 1075 m 482 1194 b 564 1106 500 1175 528 1146 l 475 1021 b 393 1110 451 1044 425 1075 "},"Ð":{"ha":1044,"x_min":0,"x_max":0,"o":"m 38 936 b 175 860 57 885 103 858 b 368 871 218 860 283 864 b 561 883 454 878 518 882 b 711 871 624 885 674 881 b 840 801 764 858 807 836 b 974 318 929 707 974 546 l 974 222 l 974 176 l 972 131 b 749 -17 900 104 825 56 b 411 44 628 25 515 46 b 50 -68 293 43 172 6 l 38 -51 b 210 58 81 -22 138 15 b 354 165 275 100 324 136 b 436 353 408 218 436 281 l 436 425 l 353 425 l 353 376 b 260 157 353 292 322 219 b 47 -8 211 108 140 53 l 38 0 b 175 189 108 58 154 121 b 201 425 192 238 200 315 l 0 425 l 8 479 l 207 479 b 406 729 225 583 292 667 b 314 726 390 728 360 728 l 215 724 b 78 776 158 722 113 739 b 28 901 43 814 26 856 l 29 936 l 38 936 m 436 597 b 467 732 436 650 446 694 b 353 588 390 708 353 661 l 353 479 l 436 479 l 436 597 m 504 736 b 467 606 479 701 467 658 l 467 479 l 532 479 l 532 736 m 821 265 b 743 682 822 489 797 628 b 606 735 710 715 664 733 l 563 736 l 563 479 l 683 479 l 675 425 l 563 425 l 564 182 b 818 136 635 179 719 164 b 819 201 818 151 818 172 b 821 265 821 231 821 253 m 467 425 l 467 350 b 414 183 467 283 449 228 b 468 189 444 188 463 189 b 532 183 483 189 517 183 l 532 425 "},"Ñ":{"ha":983,"x_min":0,"x_max":0,"o":"m 608 893 b 910 569 807 836 908 729 b 701 122 911 446 842 296 b 806 139 736 133 771 139 b 919 121 826 139 865 133 l 943 154 l 969 140 l 875 -21 b 750 0 835 -7 793 0 b 581 -97 676 0 621 -32 l 569 -86 b 639 119 576 -32 599 36 b 732 322 669 182 700 249 b 614 374 697 357 658 374 b 488 325 581 372 539 357 l 488 172 b 418 -15 488 101 464 39 b 240 -103 369 -75 310 -104 b 118 -79 204 -103 164 -94 b 22 -57 78 -65 46 -58 b -65 -81 -3 -56 -32 -64 l -69 -75 b 97 31 -26 -4 29 32 b 161 26 111 31 132 29 b 226 22 190 24 211 22 b 319 106 289 22 321 50 b 269 196 318 144 301 175 b 165 225 242 215 207 225 b 114 221 154 225 125 221 b 211 276 142 257 174 275 b 278 267 218 276 240 274 b 129 389 257 347 208 388 b 83 385 118 389 103 388 b 172 438 104 419 133 438 b 279 408 206 438 242 428 b 83 556 261 504 196 554 b 178 601 110 586 140 601 b 278 579 206 600 239 593 l 278 690 l 608 893 m 404 231 b 306 8 404 115 371 42 b 336 7 313 8 329 7 b 431 71 376 8 408 31 b 457 186 449 103 457 142 l 457 753 l 404 725 m 488 575 b 629 519 538 539 585 521 b 754 578 672 518 714 538 b 649 706 738 631 703 674 b 488 754 603 733 549 750 m 488 357 b 619 401 531 386 575 401 b 740 357 663 401 703 386 b 769 494 760 401 769 447 b 763 546 771 514 768 531 b 624 492 719 508 674 490 b 488 542 578 492 533 508 m 482 1168 b 579 1149 504 1167 536 1161 b 679 1131 622 1138 656 1132 b 711 1140 693 1131 704 1133 b 728 1172 715 1144 721 1156 l 757 1161 b 718 1083 736 1118 724 1093 b 646 1043 697 1056 674 1042 b 544 1064 622 1044 589 1051 b 443 1083 500 1076 467 1082 b 396 1042 425 1085 408 1071 l 368 1050 b 408 1131 385 1090 399 1117 b 482 1168 428 1157 453 1169 "},"Ò":{"ha":969,"x_min":0,"x_max":0,"o":"m 513 915 b 806 810 631 903 729 867 b 938 540 897 740 942 650 b 747 176 933 414 869 293 b 376 0 626 61 503 1 b 122 122 275 -3 190 38 b 29 396 61 199 31 290 b 81 639 28 456 46 536 b 513 915 175 703 319 794 m 275 728 b 163 464 199 650 161 563 b 236 240 164 376 188 303 b 275 336 263 274 275 306 l 275 728 m 394 429 b 347 310 394 392 379 353 b 257 213 331 289 300 256 b 447 117 326 150 390 118 l 447 793 l 394 793 m 481 633 b 619 571 526 592 574 571 b 751 635 671 569 715 592 b 481 790 703 724 613 775 m 481 117 b 654 188 542 118 600 142 b 769 339 701 226 740 276 b 626 421 738 393 689 421 b 481 350 576 421 528 397 m 481 394 b 626 446 528 429 576 446 b 783 376 688 447 740 424 b 804 463 797 408 804 436 b 768 606 806 525 793 572 b 614 544 719 564 668 543 b 481 588 574 544 529 558 l 481 394 m 390 1225 b 588 1013 450 1142 515 1071 l 533 989 b 293 1189 432 1043 353 1110 l 390 1225 "},"Ó":{"ha":969,"x_min":0,"x_max":0,"o":"m 513 915 b 806 810 631 903 729 867 b 938 540 897 740 942 650 b 747 176 933 414 869 293 b 376 0 626 61 503 1 b 122 122 275 -3 190 38 b 29 396 61 199 31 290 b 81 639 28 456 46 536 b 513 915 175 703 319 794 m 275 728 b 163 464 199 650 161 563 b 236 240 164 376 188 303 b 275 336 263 274 275 306 l 275 728 m 394 429 b 347 310 394 392 379 353 b 257 213 331 289 300 256 b 447 117 326 150 390 118 l 447 793 l 394 793 m 481 633 b 619 571 526 592 574 571 b 751 635 671 569 715 592 b 481 790 703 724 613 775 m 481 117 b 654 188 542 118 600 142 b 769 339 701 226 740 276 b 626 421 738 393 689 421 b 481 350 576 421 528 397 m 481 394 b 626 446 528 429 576 446 b 783 376 688 447 740 424 b 804 463 797 408 804 436 b 768 606 806 525 793 572 b 614 544 719 564 668 543 b 481 588 574 544 529 558 l 481 394 m 650 1189 b 410 989 590 1110 510 1043 l 356 1013 b 553 1225 428 1071 493 1142 "},"Ô":{"ha":969,"x_min":0,"x_max":0,"o":"m 513 915 b 806 810 631 903 729 867 b 938 540 897 740 942 650 b 747 176 933 414 869 293 b 376 0 626 61 503 1 b 122 122 275 -3 190 38 b 29 396 61 199 31 290 b 81 639 28 456 46 536 b 513 915 175 703 319 794 m 275 728 b 163 464 199 650 161 563 b 236 240 164 376 188 303 b 275 336 263 274 275 306 l 275 728 m 394 429 b 347 310 394 392 379 353 b 257 213 331 289 300 256 b 447 117 326 150 390 118 l 447 793 l 394 793 m 481 633 b 619 571 526 592 574 571 b 751 635 671 569 715 592 b 481 790 703 724 613 775 m 481 117 b 654 188 542 118 600 142 b 769 339 701 226 740 276 b 626 421 738 393 689 421 b 481 350 576 421 528 397 m 481 394 b 626 446 528 429 576 446 b 783 376 688 447 740 424 b 804 463 797 408 804 436 b 768 606 806 525 793 572 b 614 544 719 564 668 543 b 481 588 574 544 529 558 l 481 394 m 276 1011 b 425 1222 322 1063 371 1133 l 492 1222 b 640 1011 535 1146 583 1075 l 619 989 b 458 1129 554 1026 500 1072 b 297 989 411 1067 357 1021 "},"Õ":{"ha":969,"x_min":0,"x_max":0,"o":"m 513 915 b 806 810 631 903 729 867 b 938 540 897 740 942 650 b 747 176 933 414 869 293 b 376 0 626 61 503 1 b 122 122 275 -3 190 38 b 29 396 61 199 31 290 b 81 639 28 456 46 536 b 513 915 175 703 319 794 m 275 728 b 163 464 199 650 161 563 b 236 240 164 376 188 303 b 275 336 263 274 275 306 l 275 728 m 394 429 b 347 310 394 392 379 353 b 257 213 331 289 300 256 b 447 117 326 150 390 118 l 447 793 l 394 793 m 481 633 b 619 571 526 592 574 571 b 751 635 671 569 715 592 b 481 790 703 724 613 775 m 481 117 b 654 188 542 118 600 142 b 769 339 701 226 740 276 b 626 421 738 393 689 421 b 481 350 576 421 528 397 m 481 394 b 626 446 528 429 576 446 b 783 376 688 447 740 424 b 804 463 797 408 804 436 b 768 606 806 525 793 572 b 614 544 719 564 668 543 b 481 588 574 544 529 558 l 481 394 m 378 1168 b 476 1149 400 1167 433 1161 b 575 1131 519 1138 553 1132 b 607 1140 590 1131 600 1133 b 624 1172 611 1144 617 1156 l 653 1161 b 614 1083 633 1118 621 1093 b 542 1043 593 1056 569 1042 b 442 1064 519 1044 486 1051 b 339 1083 397 1076 363 1082 b 292 1042 321 1085 306 1071 l 264 1050 b 304 1131 282 1092 294 1118 b 378 1168 324 1157 349 1169 "},"Ö":{"ha":969,"x_min":0,"x_max":0,"o":"m 513 915 b 806 810 631 903 729 867 b 938 540 897 740 942 650 b 747 176 933 414 869 293 b 376 0 626 61 503 1 b 122 122 275 -3 190 38 b 29 396 61 199 31 290 b 81 639 28 456 46 536 b 513 915 175 703 319 794 m 275 728 b 163 464 199 650 161 563 b 236 240 164 376 188 303 b 275 336 263 274 275 306 l 275 728 m 394 429 b 347 310 394 392 379 353 b 257 213 331 289 300 256 b 447 117 326 150 390 118 l 447 793 l 394 793 m 481 633 b 619 571 526 592 574 571 b 751 635 671 569 715 592 b 481 790 703 724 613 775 m 481 117 b 654 188 542 118 600 142 b 769 339 701 226 740 276 b 626 421 738 393 689 421 b 481 350 576 421 528 397 m 481 394 b 626 446 528 429 576 446 b 783 376 688 447 740 424 b 804 463 797 408 804 436 b 768 606 806 525 793 572 b 614 544 719 564 668 543 b 481 588 574 544 529 558 l 481 394 m 342 1194 b 424 1106 360 1175 388 1146 l 335 1021 b 253 1110 315 1042 288 1071 l 342 1194 m 574 1194 b 656 1106 592 1175 619 1146 l 567 1021 b 485 1110 547 1042 519 1071 l 574 1194 "},"×":{"ha":1153,"x_min":0,"x_max":0,"o":"m 264 792 l 581 475 l 897 792 l 963 726 l 646 410 l 963 93 l 897 29 l 581 346 l 264 29 l 199 93 l 515 410 l 199 726 "},"Ø":{"ha":969,"x_min":0,"x_max":0,"o":"m 510 896 b 733 838 585 892 660 872 l 819 925 l 892 925 l 782 810 b 938 521 890 728 942 632 b 747 156 932 392 868 271 b 374 -21 626 43 503 -17 b 146 64 289 -25 214 4 l 50 -40 l -17 -40 l 108 106 b 29 379 56 181 29 272 b 78 619 29 444 46 525 b 510 896 218 713 361 806 m 268 710 b 154 438 189 642 151 551 b 218 233 156 358 178 290 b 268 339 251 274 268 308 l 268 710 m 447 500 l 447 775 b 376 774 431 775 392 774 l 376 421 m 447 415 l 250 196 b 447 97 315 131 382 97 m 478 536 l 636 724 b 478 772 579 756 526 771 m 478 375 b 624 428 526 410 575 426 b 783 356 685 428 738 404 b 804 454 797 385 804 417 b 768 586 806 503 793 547 b 611 524 721 544 668 524 b 549 536 606 524 585 528 l 478 454 m 617 550 b 751 614 671 551 717 572 b 683 694 736 643 714 669 l 568 560 b 617 550 589 553 604 550 m 478 97 b 651 168 539 99 597 122 b 767 318 699 208 738 258 b 625 400 735 372 688 400 b 478 331 574 399 524 376 "},"Ù":{"ha":1050,"x_min":0,"x_max":0,"o":"m 425 799 b 299 776 374 783 331 776 b 257 778 289 776 275 776 b 214 781 236 779 222 781 b 32 644 128 782 67 736 l 17 644 b 60 814 18 713 32 769 b 207 893 94 867 143 893 b 319 876 233 893 271 888 b 435 860 371 865 410 860 b 532 893 471 858 503 869 l 563 893 l 563 561 b 667 532 596 542 631 532 b 765 561 697 532 731 542 l 765 726 l 708 765 l 661 714 l 639 729 l 776 893 l 901 808 l 969 865 l 981 856 b 924 711 943 804 924 757 l 924 181 b 951 83 924 133 933 101 l 990 121 l 1011 101 l 885 -22 l 860 -22 b 768 146 807 21 776 76 b 425 -22 657 32 543 -24 b 176 83 324 -21 240 14 b 82 339 114 151 83 236 b 188 614 82 436 117 528 b 425 799 249 688 328 749 m 467 792 b 293 639 394 757 336 707 b 226 418 250 571 228 497 b 304 190 225 326 251 250 b 353 317 336 221 353 263 l 353 571 b 467 792 353 647 390 721 m 532 847 b 479 721 497 808 479 767 l 479 392 b 324 171 479 318 428 244 b 421 119 356 144 388 128 b 532 110 447 113 485 110 l 532 847 m 563 388 b 668 414 594 406 629 414 b 765 389 700 414 732 406 l 765 531 b 664 504 732 513 699 504 b 563 531 626 506 593 514 m 667 388 b 563 357 632 389 597 378 l 563 113 b 765 189 625 113 715 149 l 765 357 b 667 388 733 378 701 388 m 517 1225 b 714 1013 576 1142 642 1071 l 660 989 b 419 1189 561 1043 481 1110 l 517 1225 "},"Ú":{"ha":1050,"x_min":0,"x_max":0,"o":"m 425 799 b 299 776 374 783 331 776 b 257 778 289 776 275 776 b 214 781 236 779 222 781 b 32 644 128 782 67 736 l 17 644 b 60 814 18 713 32 769 b 207 893 94 867 143 893 b 319 876 233 893 271 888 b 435 860 371 865 410 860 b 532 893 471 858 503 869 l 563 893 l 563 561 b 667 532 596 542 631 532 b 765 561 697 532 731 542 l 765 726 l 708 765 l 661 714 l 639 729 l 776 893 l 901 808 l 969 865 l 981 856 b 924 711 943 804 924 757 l 924 181 b 951 83 924 133 933 101 l 990 121 l 1011 101 l 885 -22 l 860 -22 b 768 146 807 21 776 76 b 425 -22 657 32 543 -24 b 176 83 324 -21 240 14 b 82 339 114 151 83 236 b 188 614 82 436 117 528 b 425 799 249 688 328 749 m 467 792 b 293 639 394 757 336 707 b 226 418 250 571 228 497 b 304 190 225 326 251 250 b 353 317 336 221 353 263 l 353 571 b 467 792 353 647 390 721 m 532 847 b 479 721 497 808 479 767 l 479 392 b 324 171 479 318 428 244 b 421 119 356 144 388 128 b 532 110 447 113 485 110 l 532 847 m 563 388 b 668 414 594 406 629 414 b 765 389 700 414 732 406 l 765 531 b 664 504 732 513 699 504 b 563 531 626 506 593 514 m 667 388 b 563 357 632 389 597 378 l 563 113 b 765 189 625 113 715 149 l 765 357 b 667 388 733 378 701 388 m 776 1189 b 536 989 717 1110 638 1043 l 482 1013 b 679 1225 553 1069 619 1140 "},"Û":{"ha":1050,"x_min":0,"x_max":0,"o":"m 618 1222 b 767 1011 658 1149 708 1079 l 746 989 b 585 1129 681 1026 626 1074 b 424 989 539 1068 485 1021 l 403 1011 b 551 1222 449 1064 499 1135 m 425 799 b 299 776 374 783 331 776 b 257 778 289 776 275 776 b 214 781 236 779 222 781 b 32 644 128 782 67 736 l 17 644 b 60 814 18 713 32 769 b 207 893 94 867 143 893 b 319 876 233 893 271 888 b 435 860 371 865 410 860 b 532 893 471 858 503 869 l 563 893 l 563 561 b 667 532 596 542 631 532 b 765 561 697 532 731 542 l 765 726 l 708 765 l 661 714 l 639 729 l 776 893 l 901 808 l 969 865 l 981 856 b 924 711 943 804 924 757 l 924 181 b 951 83 924 133 933 101 l 990 121 l 1011 101 l 885 -22 l 860 -22 b 768 146 807 21 776 76 b 425 -22 657 32 543 -24 b 176 83 324 -21 240 14 b 82 339 114 151 83 236 b 188 614 82 436 117 528 b 425 799 249 688 328 749 m 467 792 b 293 639 394 757 336 707 b 226 418 250 571 228 497 b 304 190 225 326 251 250 b 353 317 336 221 353 263 l 353 571 b 467 792 353 647 390 721 m 532 847 b 479 721 497 808 479 767 l 479 392 b 324 171 479 318 428 244 b 421 119 356 144 388 128 b 532 110 447 113 485 110 l 532 847 m 563 388 b 668 414 594 406 629 414 b 765 389 700 414 732 406 l 765 531 b 664 504 732 513 699 504 b 563 531 626 506 593 514 m 667 388 b 563 357 632 389 597 378 l 563 113 b 765 189 625 113 715 149 l 765 357 b 667 388 733 378 701 388 "},"Ü":{"ha":1050,"x_min":0,"x_max":0,"o":"m 425 799 b 299 776 374 783 331 776 b 257 778 289 776 275 776 b 214 781 236 779 222 781 b 32 644 128 782 67 736 l 17 644 b 60 814 18 713 32 769 b 207 893 94 867 143 893 b 319 876 233 893 271 888 b 435 860 371 865 410 860 b 532 893 471 858 503 869 l 563 893 l 563 561 b 667 532 596 542 631 532 b 765 561 697 532 731 542 l 765 726 l 708 765 l 661 714 l 639 729 l 776 893 l 901 808 l 969 865 l 981 856 b 924 711 943 804 924 757 l 924 181 b 951 83 924 133 933 101 l 990 121 l 1011 101 l 885 -22 l 860 -22 b 768 146 807 21 776 76 b 425 -22 657 32 543 -24 b 176 83 324 -21 240 14 b 82 339 114 151 83 236 b 188 614 82 436 117 528 b 425 799 249 688 328 749 m 467 792 b 293 639 394 757 336 707 b 226 418 250 571 228 497 b 304 190 225 326 251 250 b 353 317 336 221 353 263 l 353 571 b 467 792 353 647 390 721 m 532 847 b 479 721 497 808 479 767 l 479 392 b 324 171 479 318 428 244 b 421 119 356 144 388 128 b 532 110 447 113 485 110 l 532 847 m 563 388 b 668 414 594 406 629 414 b 765 389 700 414 732 406 l 765 531 b 664 504 732 513 699 504 b 563 531 626 506 593 514 m 667 388 b 563 357 632 389 597 378 l 563 113 b 765 189 625 113 715 149 l 765 357 b 667 388 733 378 701 388 m 468 1194 b 550 1106 486 1175 513 1146 l 461 1021 b 379 1110 442 1042 414 1071 l 468 1194 m 700 1194 b 782 1106 718 1175 744 1146 l 693 1021 b 611 1110 674 1042 646 1071 "},"Ý":{"ha":932,"x_min":0,"x_max":0,"o":"m 82 863 b 188 892 117 881 151 890 b 364 758 276 892 346 843 b 617 863 460 828 543 863 b 807 760 700 863 764 828 b 861 540 844 700 863 628 b 776 253 860 419 831 324 b 508 136 715 175 626 136 l 256 136 b 121 110 201 136 156 128 b 53 0 75 86 51 50 b 175 -117 54 -68 104 -117 b 250 -101 196 -117 221 -111 b 421 -32 299 -78 356 -56 b 528 -17 449 -22 485 -17 b 625 -46 567 -17 599 -26 b 669 -133 654 -67 668 -96 b 610 -193 669 -171 650 -192 b 560 -139 578 -192 561 -174 b 582 -76 561 -122 581 -89 b 557 -58 582 -64 574 -57 b 417 -125 543 -58 496 -81 b 214 -194 332 -172 264 -196 b 76 -142 160 -194 114 -176 b 18 -7 38 -104 18 -60 b 81 122 18 47 39 90 b 222 167 118 151 165 165 l 222 240 b 172 347 222 275 206 311 b 74 418 144 376 111 400 l 74 429 b 115 432 83 429 106 432 b 222 400 156 432 190 421 l 222 456 b 174 551 222 488 206 519 b 78 611 144 578 113 599 l 78 619 b 133 628 96 625 115 628 b 222 608 158 628 188 621 l 222 744 b 82 851 222 815 175 850 l 82 863 m 361 167 l 424 167 l 424 756 l 361 728 m 457 606 b 567 560 492 576 528 561 b 692 610 611 560 653 576 b 540 789 674 729 622 789 b 457 772 510 790 482 785 m 457 393 b 567 432 494 418 532 431 b 696 385 607 432 650 417 b 704 490 701 431 704 467 b 699 579 704 515 703 544 b 565 529 649 546 604 529 b 457 569 529 531 493 543 m 457 167 l 504 167 b 628 226 553 167 594 186 b 688 354 657 261 678 303 b 571 401 651 386 613 401 b 457 360 536 401 497 388 m 694 1189 b 454 989 635 1110 556 1043 l 400 1013 b 597 1225 472 1071 538 1142 "},"Þ":{"ha":893,"x_min":0,"x_max":0,"o":"m 25 822 b 181 894 74 871 126 894 b 304 847 229 893 271 878 b 356 726 339 815 356 775 l 356 631 l 414 669 l 414 893 l 444 893 l 444 692 l 592 799 b 757 685 660 772 714 735 b 828 500 804 631 828 568 l 828 144 l 628 -21 b 444 33 560 8 499 26 l 444 -190 b 417 -189 433 -189 424 -189 l 238 -189 b 203 -190 225 -189 213 -189 l 203 53 b 29 -1 149 51 92 33 l 21 10 b 207 176 61 89 124 144 b 11 394 178 250 113 322 l 11 400 l 203 528 l 203 714 b 97 815 203 782 168 815 b 25 807 76 815 53 813 l 25 822 m 100 431 l 203 342 l 203 496 m 414 -154 l 414 639 l 356 601 l 356 -154 m 444 492 b 560 443 471 460 508 444 b 675 489 603 443 642 458 b 608 615 674 538 651 579 b 472 671 568 650 522 668 l 444 661 m 444 301 b 560 335 479 322 517 333 b 675 301 597 335 636 324 l 675 450 b 561 417 640 428 603 417 b 444 449 514 417 475 428 m 444 190 b 675 119 533 175 610 151 l 675 264 b 556 308 639 293 599 308 b 444 271 514 307 476 294 "},"ß":{"ha":653,"x_min":0,"x_max":0,"o":"m 107 628 l 107 772 b 250 872 161 800 208 833 l 378 840 l 351 740 l 232 765 l 232 496 l 438 653 b 500 596 451 640 472 621 b 572 557 531 569 554 557 l 572 547 l 428 403 b 558 360 482 403 526 389 b 610 235 593 331 610 289 b 475 29 610 151 565 83 b 376 -28 453 17 419 -1 b 333 -97 349 -44 335 -68 b 383 -151 333 -132 350 -150 b 421 -144 392 -149 404 -146 b 444 -167 436 -143 444 -151 b 401 -192 444 -182 431 -190 b 308 -92 350 -190 310 -143 b 358 0 314 -54 331 -24 b 435 68 376 15 401 39 b 485 183 464 100 481 138 b 379 307 485 265 450 307 b 325 300 364 307 346 304 l 276 289 l 454 468 l 363 557 l 232 463 l 232 144 l 313 93 l 344 121 l 363 101 l 243 -15 b 69 92 178 44 119 79 b 107 192 94 113 107 146 l 107 553 l 38 553 l 49 628 "},"à":{"ha":518,"x_min":0,"x_max":0,"o":"m 117 596 b 244 653 168 593 211 613 l 431 583 l 467 613 l 475 606 b 429 492 444 557 429 519 l 429 138 b 461 92 429 119 440 104 l 485 113 l 506 90 l 385 -15 b 304 139 332 13 306 64 l 132 -15 l 119 -15 b 26 167 58 43 28 104 b 156 421 26 246 69 331 l 92 597 m 179 422 l 304 351 l 304 503 l 124 575 m 175 399 b 138 268 150 357 138 314 b 211 89 138 194 163 135 l 304 176 l 304 326 l 175 399 m 208 958 b 406 747 268 875 333 804 l 351 724 b 111 924 250 778 171 844 l 208 958 "},"á":{"ha":518,"x_min":0,"x_max":0,"o":"m 117 596 b 244 653 168 593 211 613 l 431 583 l 467 613 l 475 606 b 429 492 444 557 429 519 l 429 138 b 461 92 429 119 440 104 l 485 113 l 506 90 l 385 -15 b 304 139 332 13 306 64 l 132 -15 l 119 -15 b 26 167 58 43 28 104 b 156 421 26 246 69 331 l 92 597 l 117 596 m 179 422 l 304 351 l 304 503 l 124 575 m 175 399 b 138 268 150 357 138 314 b 211 89 138 194 163 135 l 304 176 l 304 326 l 175 399 m 468 924 b 228 724 408 844 329 778 l 174 747 b 371 958 246 804 311 875 "},"â":{"ha":518,"x_min":0,"x_max":0,"o":"m 117 596 b 244 653 168 593 211 613 l 431 583 l 467 613 l 475 606 b 429 492 444 557 429 519 l 429 138 b 461 92 429 119 440 104 l 485 113 l 506 90 l 385 -15 b 304 139 332 13 306 64 l 132 -15 l 119 -15 b 26 167 58 43 28 104 b 156 421 26 246 69 331 l 92 597 l 117 596 m 179 422 l 304 351 l 304 503 l 124 575 m 175 399 b 138 268 150 357 138 314 b 211 89 138 194 163 135 l 304 176 l 304 326 l 175 399 m 94 744 b 243 956 140 797 190 868 l 310 956 b 458 744 353 879 401 808 l 438 724 b 276 863 372 761 319 807 b 115 724 229 800 175 754 "},"ã":{"ha":518,"x_min":0,"x_max":0,"o":"m 117 596 b 244 653 168 593 211 613 l 431 583 l 467 613 l 475 606 b 429 492 444 557 429 519 l 429 138 b 461 92 429 119 440 104 l 485 113 l 506 90 l 385 -15 b 304 139 332 13 306 64 l 132 -15 l 119 -15 b 26 167 58 43 28 104 b 156 421 26 246 69 331 l 92 597 l 117 596 m 179 422 l 304 351 l 304 503 l 124 575 m 175 399 b 138 268 150 357 138 314 b 211 89 138 194 163 135 l 304 176 l 304 326 l 175 399 m 196 901 b 294 883 218 900 251 894 b 393 865 338 872 371 867 b 425 874 408 864 418 867 b 442 904 429 878 435 888 l 471 896 b 432 817 451 853 439 826 b 360 778 411 789 388 776 b 258 797 336 779 303 785 b 157 817 214 810 181 815 b 110 775 139 818 122 804 l 82 783 b 122 864 99 824 113 850 b 196 901 142 890 167 903 "},"ä":{"ha":518,"x_min":0,"x_max":0,"o":"m 117 596 b 244 653 168 593 211 613 l 431 583 l 467 613 l 475 606 b 429 492 444 557 429 519 l 429 138 b 461 92 429 119 440 104 l 485 113 l 506 90 l 385 -15 b 304 139 332 13 306 64 l 132 -15 l 119 -15 b 26 167 58 43 28 104 b 156 421 26 246 69 331 l 92 597 l 117 596 m 179 422 l 304 351 l 304 503 l 124 575 m 175 399 b 138 268 150 357 138 314 b 211 89 138 194 163 135 l 304 176 l 304 326 l 175 399 m 160 928 b 242 839 178 908 206 879 l 153 754 b 71 843 124 783 97 813 l 160 928 m 392 928 b 474 839 410 908 438 879 l 385 754 b 303 843 356 783 329 813 l 392 928 "},"å":{"ha":518,"x_min":0,"x_max":0,"o":"m 117 596 b 244 653 168 593 211 613 l 431 583 l 467 613 l 475 606 b 429 492 444 557 429 519 l 429 138 b 461 92 429 119 440 104 l 485 113 l 506 90 l 385 -15 b 304 139 332 13 306 64 l 132 -15 l 119 -15 b 26 167 58 43 28 104 b 156 421 26 246 69 331 l 92 597 l 117 596 m 179 422 l 304 351 l 304 503 l 124 575 m 175 399 b 138 268 150 357 138 314 b 211 89 138 194 163 135 l 304 176 l 304 326 l 175 399 m 118 868 b 168 986 118 914 135 953 b 286 1036 201 1019 240 1036 b 404 986 332 1036 371 1019 b 454 868 438 954 454 914 b 404 750 454 822 438 783 b 286 700 371 717 332 700 b 168 750 240 700 201 717 b 118 868 135 785 118 824 m 185 868 b 286 765 185 813 229 769 b 388 868 343 769 388 813 b 286 971 388 924 342 971 b 185 868 231 971 185 924 "},"æ":{"ha":656,"x_min":0,"x_max":0,"o":"m 117 596 b 244 653 161 592 217 618 l 389 594 b 476 651 419 607 449 625 l 647 465 l 422 279 l 422 138 l 528 88 l 611 149 l 632 126 b 443 -15 589 96 526 49 b 318 47 397 14 356 35 b 304 139 308 71 304 101 l 132 -15 l 119 -15 b 26 165 58 43 28 103 b 154 415 26 247 69 331 l 92 597 m 178 422 l 304 351 l 304 507 l 122 576 m 175 399 b 138 268 150 357 138 314 b 210 90 138 194 161 136 l 304 176 l 304 326 l 175 399 m 422 318 l 547 418 l 422 551 "},"ç":{"ha":390,"x_min":0,"x_max":0,"o":"m 68 542 b 228 653 132 567 185 604 l 365 557 l 307 467 l 193 544 l 193 146 l 301 90 l 358 136 l 376 115 l 214 -17 b 182 7 207 -7 197 0 l 182 -83 b 297 -107 228 -83 267 -92 b 357 -200 338 -126 357 -157 b 276 -321 357 -244 331 -285 l 53 -282 l 79 -215 l 249 -247 b 278 -197 268 -231 278 -214 b 138 -126 279 -150 232 -126 l 144 -83 l 144 33 b 29 78 111 56 72 71 b 68 181 56 99 68 132 l 68 542 "},"è":{"ha":426,"x_min":0,"x_max":0,"o":"m 68 542 b 247 653 122 564 182 601 l 421 465 b 193 282 349 410 272 349 l 193 138 l 299 88 l 383 147 l 403 126 b 215 -15 360 96 297 49 b 29 60 161 22 99 47 b 68 161 56 79 68 113 l 68 542 m 186 318 l 311 421 l 186 554 m 157 958 b 354 747 217 875 282 804 l 300 724 b 60 924 199 778 119 844 l 157 958 "},"é":{"ha":426,"x_min":0,"x_max":0,"o":"m 68 542 b 247 653 122 564 182 601 l 421 465 b 193 282 349 410 272 349 l 193 138 l 299 88 l 383 147 l 403 126 b 215 -15 360 96 297 49 b 29 60 161 22 99 47 b 68 161 56 79 68 113 l 68 542 m 186 318 l 311 421 l 186 554 m 417 924 b 176 724 357 844 278 778 l 122 747 b 319 958 194 804 260 875 l 417 924 "},"ê":{"ha":426,"x_min":0,"x_max":0,"o":"m 68 542 b 247 653 122 564 182 601 l 421 465 b 193 281 364 422 288 360 l 193 138 l 299 88 l 383 147 l 403 126 b 215 -15 360 96 297 49 b 29 60 161 22 99 47 b 68 161 56 79 68 113 l 68 542 m 186 318 l 311 421 l 186 554 m 43 744 b 192 956 88 794 138 865 l 258 956 b 407 744 301 879 350 808 l 386 724 b 225 863 321 761 268 807 b 64 724 178 800 124 754 "},"ë":{"ha":426,"x_min":0,"x_max":0,"o":"m 68 542 b 247 653 122 564 182 601 l 421 465 b 193 282 349 410 272 349 l 193 138 l 299 88 l 383 147 l 403 126 b 215 -15 360 96 297 49 b 29 60 161 22 99 47 b 68 161 56 79 68 113 l 68 542 m 186 318 l 311 421 l 186 554 m 108 928 b 190 839 126 908 154 879 l 101 754 b 19 843 72 783 46 813 l 108 928 m 340 928 b 422 839 358 908 386 879 l 333 754 b 251 843 304 783 278 813 l 340 928 "},"ì":{"ha":288,"x_min":0,"x_max":0,"o":"m 235 554 l 200 514 l 200 139 b 233 90 200 119 211 103 l 256 111 l 276 89 l 154 -15 b 68 133 97 8 68 57 l 68 515 l 28 561 l 131 653 m 67 958 b 264 747 126 875 192 804 l 210 724 b -28 924 108 778 29 844 l 67 958 "},"í":{"ha":288,"x_min":0,"x_max":0,"o":"m 235 554 l 200 514 l 200 139 b 233 90 200 119 211 103 l 256 111 l 276 89 l 154 -15 b 68 133 97 8 68 57 l 68 515 l 28 561 l 131 653 m 328 924 b 88 724 268 844 189 778 l 33 747 b 231 958 106 804 171 875 "},"î":{"ha":288,"x_min":0,"x_max":0,"o":"m 235 554 l 200 514 l 200 139 b 233 90 200 119 211 103 l 256 111 l 276 89 l 154 -15 b 68 133 97 8 68 57 l 68 515 l 28 561 l 131 653 m -43 744 b 103 956 0 796 49 865 l 169 956 b 318 744 213 879 261 808 l 297 724 b 136 863 232 761 179 807 b -22 724 89 801 36 756 "},"ï":{"ha":288,"x_min":0,"x_max":0,"o":"m 235 554 l 200 514 l 200 139 b 233 90 200 119 211 103 l 256 111 l 276 89 l 154 -15 b 68 133 97 8 68 57 l 68 515 l 28 561 l 131 653 m 19 928 b 101 839 38 908 65 879 l 13 754 b -65 843 -4 775 -31 804 m 251 928 b 333 839 269 908 297 879 l 244 754 b 163 843 213 789 185 818 "},"ð":{"ha":532,"x_min":0,"x_max":0,"o":"m 142 851 b 279 768 197 825 243 797 l 425 829 l 457 797 l 318 736 b 461 440 414 656 461 557 l 461 89 b 268 -15 381 63 317 28 b 31 93 194 39 115 75 b 68 203 56 114 68 151 l 68 522 b 278 611 136 543 206 572 b 207 690 258 640 235 667 l 71 633 l 40 665 l 169 721 l 43 801 m 336 97 l 336 436 b 303 575 336 485 325 531 l 194 521 l 194 154 "},"ñ":{"ha":557,"x_min":0,"x_max":0,"o":"m 117 653 b 201 501 174 621 203 571 b 369 646 239 531 296 578 l 456 554 l 510 607 l 529 586 b 472 494 515 567 496 536 l 472 142 b 506 90 472 121 483 103 l 528 111 l 549 89 l 429 -15 b 347 135 375 11 347 61 l 347 483 l 292 538 l 201 467 l 201 121 l 238 75 l 139 -17 l 36 76 l 76 118 l 76 486 b 51 540 76 507 68 525 l 28 521 l 8 543 m 204 901 b 303 883 226 900 260 894 b 401 865 346 872 379 867 b 433 874 417 864 426 867 b 450 904 438 878 443 888 l 479 896 b 440 817 461 853 447 826 b 368 778 419 789 396 776 b 268 797 346 779 313 785 b 165 817 224 810 189 815 b 118 775 147 818 132 804 l 90 783 b 131 864 108 825 121 851 b 204 901 150 890 175 903 "},"ò":{"ha":533,"x_min":0,"x_max":0,"o":"m 68 538 b 256 653 140 556 203 593 b 463 550 322 600 392 565 l 463 88 b 269 -15 385 64 321 31 b 29 93 204 33 125 69 b 68 214 56 110 68 150 l 68 538 m 193 154 l 338 96 l 338 474 l 193 538 m 193 958 b 390 747 253 874 319 804 l 336 724 b 96 924 235 778 156 844 l 193 958 "},"ó":{"ha":533,"x_min":0,"x_max":0,"o":"m 68 538 b 256 653 140 556 203 593 b 463 550 322 600 392 565 l 463 88 b 269 -15 385 64 321 31 b 29 93 204 33 125 69 b 68 214 56 110 68 150 l 68 538 m 193 154 l 338 96 l 338 474 l 193 538 m 453 924 b 213 724 393 844 314 778 l 158 747 b 356 958 231 804 296 875 "},"ô":{"ha":533,"x_min":0,"x_max":0,"o":"m 68 538 b 256 653 140 556 203 593 b 463 550 322 600 392 565 l 463 88 b 269 -15 385 64 321 31 b 29 93 204 33 125 69 b 68 214 56 110 68 150 l 68 538 m 193 154 l 338 96 l 338 474 l 193 538 m 79 744 b 228 956 122 793 172 863 l 294 956 b 443 744 335 882 385 813 l 422 724 b 261 863 357 761 303 807 b 100 724 215 801 161 756 "},"õ":{"ha":533,"x_min":0,"x_max":0,"o":"m 68 538 b 256 653 140 556 203 593 b 463 550 322 600 392 565 l 463 88 b 269 -15 385 64 321 31 b 29 93 204 33 125 69 b 68 214 56 110 68 150 m 193 154 l 338 96 l 338 474 l 193 538 m 67 783 b 107 864 85 825 97 851 b 181 901 126 890 151 903 b 279 883 203 900 236 894 b 378 865 322 872 356 867 b 410 874 393 864 403 867 b 426 904 414 878 419 888 l 456 896 b 417 817 438 853 424 826 b 344 778 396 789 372 776 b 243 797 322 779 289 785 b 142 817 199 810 165 815 b 94 775 124 818 108 804 l 67 783 "},"ö":{"ha":533,"x_min":0,"x_max":0,"o":"m 68 538 b 256 653 140 556 203 593 b 463 550 322 600 392 565 l 463 88 b 269 -15 385 64 321 31 b 29 93 204 33 125 69 b 68 214 56 110 68 150 l 68 538 m 193 154 l 338 96 l 338 474 l 193 538 m 144 928 b 226 839 163 908 190 879 l 138 754 b 56 843 108 783 82 813 l 144 928 m 376 928 b 458 839 394 908 422 879 l 369 754 b 288 843 340 783 314 813 l 376 928 "},"÷":{"ha":1153,"x_min":0,"x_max":0,"o":"m 575 576 b 493 660 531 576 493 614 b 575 744 493 704 531 744 b 660 660 624 744 660 706 b 575 576 660 610 624 576 m 981 457 l 981 364 l 172 364 l 172 457 m 493 160 b 575 243 493 204 531 243 b 660 160 624 243 660 208 b 575 76 660 111 624 76 b 493 160 531 76 493 114 "},"ø":{"ha":533,"x_min":0,"x_max":0,"o":"m 68 536 b 256 653 140 554 203 593 l 304 618 l 333 731 l 389 731 l 354 588 b 463 549 392 567 428 554 l 463 88 b 268 -17 383 64 319 29 l 214 21 l 183 -106 l 126 -106 l 164 46 b 29 93 118 69 74 86 b 68 213 56 108 68 147 l 68 536 m 189 150 l 203 144 l 283 501 l 189 543 m 343 481 l 322 488 l 242 131 l 343 90 "},"ù":{"ha":551,"x_min":0,"x_max":0,"o":"m 240 565 l 201 525 l 201 161 b 246 92 201 132 217 110 l 347 174 l 347 521 l 311 567 l 408 653 l 511 565 l 472 525 l 472 140 b 506 90 472 122 483 106 l 529 110 l 549 88 l 428 -17 b 347 133 374 13 347 63 l 163 -15 b 100 54 136 0 115 22 b 76 146 85 83 76 114 l 76 521 l 56 543 l 28 519 l 7 542 l 139 653 m 214 958 b 411 747 274 875 339 804 l 357 724 b 117 924 256 778 176 844 "},"ú":{"ha":551,"x_min":0,"x_max":0,"o":"m 139 653 l 240 565 l 201 525 l 201 161 b 246 92 201 132 217 110 l 347 174 l 347 521 l 311 567 l 408 653 l 511 565 l 472 525 l 472 140 b 506 90 472 122 483 106 l 529 110 l 549 88 l 428 -17 b 347 133 374 13 347 63 l 163 -15 b 100 54 136 0 115 22 b 76 146 85 83 76 114 l 76 521 l 56 543 l 28 519 l 7 542 m 474 924 b 233 724 414 844 335 778 l 179 747 b 376 958 251 804 317 875 "},"û":{"ha":551,"x_min":0,"x_max":0,"o":"m 139 653 l 240 565 l 201 525 l 201 161 b 246 92 201 132 217 110 l 347 174 l 347 521 l 311 567 l 408 653 l 511 565 l 472 525 l 472 140 b 506 90 472 122 483 106 l 529 110 l 549 88 l 428 -17 b 347 133 374 13 347 63 l 163 -15 b 100 54 136 0 115 22 b 76 146 85 83 76 114 l 76 521 l 56 543 l 28 519 l 7 542 m 100 744 b 249 956 144 794 194 865 l 315 956 b 464 744 358 879 407 808 l 443 724 b 282 863 378 761 325 807 b 121 724 235 800 181 754 "},"ü":{"ha":551,"x_min":0,"x_max":0,"o":"m 139 653 l 240 565 l 201 525 l 201 161 b 246 92 201 132 217 110 l 347 174 l 347 521 l 311 567 l 408 653 l 511 565 l 472 525 l 472 140 b 506 90 472 122 483 106 l 529 110 l 549 88 l 428 -17 b 347 133 374 13 347 63 l 163 -15 b 100 54 136 0 115 22 b 76 146 85 83 76 114 l 76 521 l 56 543 l 28 519 l 7 542 m 165 928 b 247 839 183 908 211 879 l 158 754 b 76 843 126 789 99 818 m 397 928 b 479 839 415 908 443 879 l 390 754 b 308 843 358 789 331 818 "},"ý":{"ha":542,"x_min":0,"x_max":0,"o":"m 161 653 b 244 497 219 619 247 568 l 417 647 b 500 428 474 586 501 513 b 404 203 499 338 467 263 b 174 44 361 163 283 110 b 51 -89 92 -3 51 -47 b 149 -158 51 -132 83 -156 b 229 -128 181 -157 207 -146 b 278 -100 251 -110 268 -101 b 300 -124 293 -100 301 -107 b 240 -178 299 -147 279 -165 b 154 -192 213 -187 183 -192 b 60 -171 118 -192 86 -185 b 13 -94 26 -153 11 -128 b 56 7 14 -67 29 -33 b 118 106 97 72 118 104 l 118 479 b 92 542 118 503 110 524 l 53 504 l 31 526 l 161 653 m 243 119 b 382 376 336 186 382 272 b 328 531 383 442 365 493 l 243 460 m 463 924 b 224 724 404 844 325 778 l 169 747 b 367 958 242 804 307 875 "},"þ":{"ha":542,"x_min":0,"x_max":0,"o":"m 47 847 b 138 803 85 840 115 826 l 147 803 b 276 872 186 849 229 871 l 279 868 b 217 744 238 832 217 790 l 217 510 b 349 653 263 547 307 594 b 463 547 399 638 436 601 b 483 444 476 515 483 482 l 483 121 b 324 -10 440 97 386 53 b 217 42 290 10 254 26 l 217 -51 b 282 -192 217 -86 239 -132 b 140 -106 236 -192 189 -162 b 36 -162 103 -143 68 -161 b 92 -47 74 -119 92 -82 l 92 756 b 44 842 92 783 76 813 l 47 847 m 217 150 b 358 103 254 142 301 126 l 358 458 b 293 538 358 486 321 526 l 217 463 "},"ÿ":{"ha":542,"x_min":0,"x_max":0,"o":"m 161 653 b 244 497 219 619 247 568 l 417 647 b 500 428 474 586 501 513 b 404 203 499 338 467 263 b 174 44 361 163 283 110 b 51 -89 92 -3 51 -47 b 149 -158 51 -132 83 -156 b 229 -128 181 -157 207 -146 b 278 -100 251 -110 268 -101 b 300 -124 293 -100 301 -107 b 240 -178 299 -147 279 -165 b 154 -192 213 -187 183 -192 b 60 -171 118 -192 86 -185 b 13 -94 26 -153 11 -128 b 56 7 14 -67 29 -33 b 118 106 97 72 118 104 l 118 479 b 92 542 118 503 110 524 l 53 504 l 31 526 l 161 653 m 243 460 l 243 119 b 382 376 336 186 382 272 b 328 531 383 442 365 493 m 154 928 b 236 839 172 908 200 879 l 147 754 b 65 843 118 783 92 813 m 386 928 b 468 839 404 908 432 879 l 379 754 b 297 843 350 783 324 813 "},"ſ":{"ha":397,"x_min":0,"x_max":0,"o":"m 324 92 l 369 136 l 388 115 l 253 -15 b 63 93 207 29 144 65 b 101 199 89 114 101 149 l 101 554 l 32 554 l 43 628 l 101 628 l 101 772 b 244 872 142 792 190 825 l 372 840 l 344 740 l 232 768 l 232 154 "},"∆":{"ha":967,"x_min":0,"x_max":0,"o":"m 939 0 l 33 0 l 475 971 l 497 971 m 133 61 l 747 61 l 439 746 "},"Σ":{"ha":914,"x_min":0,"x_max":0,"o":"m 228 942 l 633 515 l 633 493 l 231 150 l 672 150 l 724 150 b 765 174 746 153 760 161 l 803 282 l 856 282 l 742 -94 l 689 -94 b 711 -12 704 -51 711 -24 b 682 0 713 -4 703 0 l 15 0 l 15 29 l 500 443 l 15 953 l 15 990 l 603 990 b 653 1013 638 990 654 997 b 642 1075 653 1015 649 1036 l 692 1075 l 776 806 l 725 806 b 667 921 704 865 685 904 b 592 942 653 935 628 942 "},"Ω":{"ha":1060,"x_min":0,"x_max":0,"o":"m 788 586 b 529 956 785 832 699 956 b 272 586 361 956 275 832 b 439 0 269 404 325 208 l 97 0 l 18 260 l 58 260 l 99 135 l 308 135 l 308 153 b 101 592 171 301 101 447 b 228 890 103 711 144 811 b 529 1007 308 968 408 1007 b 833 890 650 1007 751 968 b 958 592 915 813 957 713 b 938 454 960 546 953 500 b 750 153 911 369 849 269 l 750 135 l 960 135 l 1000 260 l 1040 260 l 961 0 l 621 0 b 788 586 733 199 789 394 "},"π":{"ha":939,"x_min":0,"x_max":0,"o":"m 24 329 b 90 514 38 411 60 474 b 261 596 129 568 186 596 l 925 596 l 896 463 l 667 463 b 644 290 654 406 646 349 l 639 133 b 558 -28 635 26 608 -28 b 501 38 521 -28 501 -6 b 543 194 501 75 515 126 b 629 463 579 283 608 372 l 365 463 b 342 285 351 401 343 342 l 338 126 b 257 -28 333 24 307 -28 b 200 40 219 -28 200 -6 b 240 190 200 72 214 122 b 326 463 275 281 303 371 l 201 463 b 103 429 157 463 124 451 b 63 329 85 408 71 375 l 24 329 "},"₧":{"ha":2019,"x_min":0,"x_max":0,"o":"m 1931 781 b 1840 881 1931 832 1892 881 l 1635 881 b 1583 929 1600 881 1583 897 l 1583 1111 l 1504 1111 l 1504 929 b 1665 807 1504 847 1558 807 b 1731 810 1681 807 1701 808 b 1797 813 1760 811 1782 813 b 1854 786 1835 813 1854 804 b 1799 757 1854 767 1836 757 b 1731 760 1783 757 1761 758 b 1664 764 1701 763 1679 764 b 1504 631 1557 764 1504 719 l 1504 183 b 1604 64 1504 118 1538 79 l 1604 142 b 1578 200 1586 153 1578 172 l 1578 619 b 1626 682 1578 661 1594 682 l 1829 682 b 1931 781 1883 682 1931 726 m 1393 319 b 1356 410 1393 358 1381 389 b 1260 442 1332 431 1300 442 l 918 442 b 861 493 881 442 861 458 l 861 625 b 918 685 861 665 881 685 l 1257 685 b 1317 656 1279 685 1299 675 l 1386 656 b 1263 761 1374 726 1333 761 l 921 761 b 785 619 838 761 785 703 l 785 496 b 913 368 785 419 839 368 l 1260 368 b 1322 306 1301 368 1322 347 l 1322 200 b 1238 138 1322 158 1294 138 l 890 138 b 860 167 869 138 860 147 b 888 192 860 183 869 192 l 1263 192 l 1263 265 l 875 265 b 785 164 821 265 785 219 b 882 67 785 108 826 67 l 1274 67 b 1393 189 1346 67 1393 117 m 689 1111 l 611 1111 l 614 164 b 589 135 614 153 600 135 b 563 164 571 135 563 144 l 563 374 b 519 478 563 415 549 450 l 271 724 b 199 750 253 742 228 750 b 121 725 169 750 144 742 b 85 656 97 707 85 683 l 85 197 b 207 64 85 108 125 64 l 321 64 b 428 164 379 64 415 97 l 354 164 b 319 135 343 150 332 140 l 207 135 b 158 194 175 135 158 154 l 158 625 b 169 669 158 635 163 650 b 193 678 176 675 185 678 b 231 658 206 678 218 671 l 363 529 b 483 400 442 451 482 408 b 486 165 485 383 486 306 b 586 58 486 108 529 58 b 688 161 642 58 688 106 m 15 1111 l 1965 1111 l 1965 -56 l 15 -56 "},"∂":{"ha":692,"x_min":0,"x_max":0,"o":"m 281 731 b 231 774 247 731 231 744 b 279 849 232 806 247 831 b 369 872 306 864 335 872 b 557 744 453 874 515 831 b 606 507 589 679 606 600 b 540 178 606 386 583 276 b 297 -15 483 51 401 -14 b 143 58 233 -17 182 7 b 92 229 108 106 92 163 b 153 429 92 308 113 375 b 336 521 199 489 260 519 b 497 393 413 522 467 479 b 517 599 510 442 517 510 b 428 829 517 753 488 829 b 360 779 410 825 388 808 b 281 731 332 750 306 735 m 356 482 b 221 363 296 482 250 442 b 189 171 200 306 189 242 b 214 61 189 126 197 90 b 306 8 235 24 265 7 b 443 126 368 11 414 50 b 475 319 464 181 475 246 b 449 429 475 363 467 400 b 356 482 428 464 396 482 "},"∏":{"ha":1153,"x_min":0,"x_max":0,"o":"m 1106 1050 l 1106 994 l 983 994 l 983 -271 l 1106 -271 l 1106 -326 l 742 -326 l 742 -271 l 856 -271 l 856 994 l 294 994 l 294 -271 l 408 -271 l 408 -326 l 44 -326 l 44 -271 l 167 -271 l 167 994 l 44 994 l 44 1050 "},"√":{"ha":882,"x_min":0,"x_max":0,"o":"m 881 1053 l 803 1053 l 401 -26 l 357 -26 l 142 567 l 57 536 l 42 589 l 231 656 l 404 174 l 753 1118 l 881 1118 "},"∞":{"ha":1153,"x_min":0,"x_max":0,"o":"m 354 672 b 569 493 435 674 507 614 b 789 675 626 615 699 676 b 949 589 854 675 908 646 b 1003 408 985 538 1003 478 b 956 232 1004 340 988 281 b 801 149 918 176 867 149 b 583 325 719 149 647 207 b 365 146 524 207 451 147 b 204 233 299 144 244 174 b 150 417 169 286 151 347 b 199 592 149 486 165 544 b 354 672 236 646 289 672 m 199 406 b 236 294 199 363 211 325 b 339 244 263 263 297 246 b 463 314 385 244 426 268 b 536 444 483 340 508 383 b 358 568 490 529 432 569 b 199 406 264 564 199 499 m 618 376 b 797 254 665 293 725 253 b 954 417 892 256 954 324 b 918 526 956 460 943 497 b 815 576 892 558 857 575 b 692 507 769 578 729 554 b 618 376 669 479 644 436 "},"∫":{"ha":692,"x_min":0,"x_max":0,"o":"m 486 974 b 403 396 428 964 400 771 b 144 -249 406 -31 319 -244 b 65 -226 113 -250 86 -242 b 31 -154 42 -208 31 -185 b 97 -90 31 -108 53 -87 b 157 -133 126 -92 147 -107 b 200 -179 168 -160 182 -175 b 281 86 243 -174 269 -85 b 283 397 283 140 285 243 b 318 782 282 551 294 681 b 542 1042 360 953 435 1039 b 621 1021 574 1043 600 1036 b 656 949 644 1003 656 979 b 589 888 657 908 635 888 b 529 931 560 890 540 904 b 486 974 519 957 504 971 "},"≈":{"ha":1153,"x_min":0,"x_max":0,"o":"m 385 378 b 535 351 431 379 481 369 b 679 303 567 340 614 324 b 776 288 711 292 744 286 b 1032 392 853 289 939 324 l 1032 289 b 774 193 938 224 851 192 b 582 239 731 193 667 208 b 390 285 499 269 435 285 b 121 176 308 283 219 247 l 121 282 b 385 378 211 344 299 376 m 385 628 b 583 583 443 628 510 613 b 772 536 664 551 726 535 b 1032 639 851 538 939 571 l 1032 538 b 774 440 946 472 860 439 b 582 488 731 442 667 457 b 390 532 499 518 435 533 b 121 426 308 531 219 496 l 121 529 b 385 628 211 594 300 626 "},"≠":{"ha":1153,"x_min":0,"x_max":0,"o":"m 978 319 l 978 232 l 500 232 l 333 18 l 261 74 l 389 232 l 172 232 l 172 319 l 444 319 l 586 497 l 172 497 l 172 586 l 647 586 l 814 801 l 881 749 l 758 586 l 978 586 l 978 497 l 697 497 l 558 319 "},"≡":{"ha":428,"x_min":0,"x_max":0,"o":"m 75 893 l 426 -128 l 351 -128 l 0 893 "},"≤":{"ha":1154,"x_min":0,"x_max":0,"o":"m 976 714 l 340 504 l 976 296 l 976 199 l 178 464 l 178 546 l 976 811 m 976 13 l 178 13 l 178 107 l 976 107 "},"≥":{"ha":1153,"x_min":0,"x_max":0,"o":"m 975 546 l 975 464 l 176 199 l 176 296 l 813 504 l 176 714 l 176 811 m 975 107 l 975 13 l 176 13 l 176 107 "},"◊":{"ha":1383,"x_min":0,"x_max":0,"o":"m 686 956 l 1086 460 l 686 -37 l 294 457 m 392 460 l 689 85 l 992 460 l 689 835 "}}}
